<svg width="61" height="62" viewBox="0 0 61 62" fill="none" xmlns="http://www.w3.org/2000/svg">
<g id="Group 38388">
<path id="Vector" d="M44.4027 61.6778H31.3714C28.8289 61.6803 26.3066 61.192 23.924 60.2362L13.7727 56.1755C13.2167 55.9473 12.7669 55.4917 12.5214 54.9079C12.2758 54.3242 12.2543 53.6596 12.4616 53.0589C12.6689 52.4582 13.0881 51.97 13.628 51.7007C14.1679 51.4313 14.7848 51.4026 15.3443 51.6208L25.4941 55.6815C27.3747 56.4341 29.3652 56.8181 31.3714 56.8153H44.4027C44.9695 56.8153 45.5131 56.5728 45.9139 56.1412C46.3146 55.7095 46.5398 55.1241 46.5398 54.5137C46.5398 53.9032 46.3146 53.3178 45.9139 52.8862C45.5131 52.4545 44.9695 52.212 44.4027 52.212C43.8044 52.212 43.2307 51.956 42.8076 51.5004C42.3845 51.0448 42.1469 50.4268 42.1469 49.7824C42.1469 49.138 42.3845 48.5201 42.8076 48.0644C43.2307 47.6088 43.8044 47.3528 44.4027 47.3528H47.4782C48.045 47.3528 48.5886 47.1103 48.9893 46.6787C49.3901 46.247 49.6153 45.6616 49.6153 45.0512C49.6153 44.4407 49.3901 43.8553 48.9893 43.4236C48.5886 42.992 48.045 42.7495 47.4782 42.7495C46.8799 42.7495 46.3061 42.4935 45.8831 42.0379C45.46 41.5823 45.2224 40.9643 45.2224 40.3199C45.2224 39.6755 45.46 39.0576 45.8831 38.6019C46.3061 38.1463 46.8799 37.8903 47.4782 37.8903H50.5522C50.975 37.8904 51.3883 37.7555 51.7398 37.5026C52.0914 37.2497 52.3654 36.8902 52.5272 36.4695C52.689 36.0489 52.7313 35.586 52.6488 35.1394C52.5663 34.6929 52.3626 34.2827 52.0636 33.9608C51.8658 33.7462 51.6303 33.5761 51.3708 33.4604C51.1113 33.3447 50.833 33.2858 50.5522 33.287C49.9539 33.287 49.3801 33.031 48.9571 32.5754C48.534 32.1197 48.2963 31.5018 48.2963 30.8574C48.2963 30.213 48.534 29.595 48.9571 29.1394C49.3801 28.6838 49.9539 28.4278 50.5522 28.4278H53.6277C54.0498 28.4263 54.4621 28.2903 54.8125 28.0367C55.1629 27.7832 55.4357 27.4236 55.5966 27.0033C55.7574 26.583 55.7991 26.1208 55.7164 25.675C55.6336 25.2291 55.4301 24.8197 55.1316 24.4983C54.9347 24.2844 54.7005 24.1146 54.4423 23.9987C54.1842 23.8828 53.9074 23.823 53.6277 23.8229H32.3264C31.9338 23.8234 31.5479 23.7136 31.2068 23.5043C30.8657 23.295 30.5813 22.9934 30.3815 22.6294C30.1818 22.2655 30.0737 21.8517 30.068 21.4289C30.0622 21.0061 30.159 20.5891 30.3487 20.219C31.0341 18.7215 31.5007 17.1191 31.7323 15.4683C32.2422 11.9259 31.6135 8.72369 29.8645 5.9507C29.6393 5.60532 29.318 5.34602 28.947 5.21029C28.576 5.07457 28.1745 5.06945 27.8006 5.19569C27.4267 5.32192 27.0998 5.57297 26.8671 5.91251C26.6344 6.25206 26.508 6.66251 26.5062 7.08452C26.5799 15.4067 23.0097 21.4548 16.1819 24.5777C15.9082 24.7095 15.6128 24.7813 15.313 24.7888C15.0132 24.7962 14.715 24.7392 14.4359 24.6211C14.1568 24.503 13.9024 24.3261 13.6875 24.1009C13.4726 23.8756 13.3016 23.6064 13.1844 23.3091C13.0672 23.0118 13.0063 22.6924 13.0051 22.3694C13.0039 22.0464 13.0625 21.7264 13.1775 21.4282C13.2925 21.1299 13.4615 20.8593 13.6748 20.6322C13.888 20.4051 14.1411 20.2261 14.4194 20.1056C17.2347 18.8098 19.286 16.9066 20.5177 14.4235C21.5223 12.3973 22.0216 9.94497 21.996 7.13473C21.9735 4.0637 23.7315 1.47212 26.4656 0.555354C29.1997 -0.361418 32.0015 0.681693 33.6017 3.22144C37.3178 9.11081 36.6471 15.2237 35.6289 18.9669H53.6277C55.1279 18.9671 56.584 19.5138 57.7593 20.518C58.9345 21.5222 59.7599 22.9251 60.1012 24.4985C60.4426 26.0718 60.2798 27.7233 59.6394 29.1845C58.9991 30.6457 57.9187 31.8306 56.5739 32.5468C57.3108 34.2439 57.4018 36.1843 56.8273 37.9527C56.2528 39.7212 55.0585 41.1772 53.4999 42.0093C54.2372 43.7068 54.3282 45.6477 53.7534 47.4166C53.1786 49.1854 51.9836 50.6416 50.4244 51.4734C50.8992 52.5646 51.1108 53.7672 51.0396 54.9698C50.9683 56.1725 50.6165 57.3363 50.0168 58.3537C49.417 59.371 48.5887 60.209 47.6084 60.79C46.6282 61.3711 45.5277 61.6764 44.4087 61.6778H44.4027Z" fill="white"/>
<path id="Vector_2" d="M15.3105 58.0809H2.39648C1.79819 58.0809 1.22441 57.8249 0.801351 57.3693C0.378295 56.9137 0.140625 56.2957 0.140625 55.6513V22.3446C0.140625 21.7003 0.378295 21.0823 0.801351 20.6267C1.22441 20.171 1.79819 19.915 2.39648 19.915H15.3105C15.9088 19.915 16.4826 20.171 16.9057 20.6267C17.3287 21.0823 17.5664 21.7003 17.5664 22.3446V55.6513C17.5664 56.2957 17.3287 56.9137 16.9057 57.3693C16.4826 57.8249 15.9088 58.0809 15.3105 58.0809ZM4.65686 53.2217H13.0547V24.7743H4.65234L4.65686 53.2217Z" fill="white"/>
</g>
</svg>
