<svg width="58" height="61" viewBox="0 0 58 61" fill="none" xmlns="http://www.w3.org/2000/svg">
<g id="Group 38389">
<path id="Vector" d="M6.43815 60.5882H51.3548C53.0566 60.5882 54.6887 59.8601 55.8921 58.5641C57.0954 57.268 57.7715 55.5102 57.7715 53.6774V29.3511C57.7667 27.5223 57.099 25.7679 55.9106 24.4616C55.9504 23.506 55.8056 22.5519 55.4853 21.6597C55.165 20.7675 54.6762 19.9567 54.0498 19.2785L50.3923 15.3738L46.6867 8.46293C46.1227 7.41084 45.3112 6.53747 44.3339 5.93082C43.3567 5.32418 42.2482 5.0057 41.1202 5.00749H40.7834L38.1686 2.15675C37.5726 1.5142 36.8649 1.00446 36.086 0.656677C35.307 0.308892 34.472 0.129883 33.6288 0.129883C32.7855 0.129883 31.9505 0.308892 31.1716 0.656677C30.3926 1.00446 29.6849 1.5142 29.089 2.15675L10.3523 22.4229H6.43815C5.40779 22.4256 4.39317 22.6954 3.48012 23.2097C2.56706 23.7239 1.78241 24.4674 1.19253 25.3773C1.07628 25.5334 0.974212 25.7012 0.887734 25.8783C0.325726 26.9298 0.0272102 28.1206 0.0214844 29.3338V53.6774C0.0214844 55.5102 0.697524 57.268 1.90088 58.5641C3.10424 59.8601 4.73634 60.5882 6.43815 60.5882ZM54.5631 53.6774C54.5631 54.5938 54.2251 55.4727 53.6235 56.1207C53.0218 56.7687 52.2057 57.1328 51.3548 57.1328H6.43815C5.58725 57.1328 4.7712 56.7687 4.16952 56.1207C3.56784 55.4727 3.22982 54.5938 3.22982 53.6774V29.3511C3.23082 28.7442 3.3802 28.1483 3.66294 27.6233L3.75919 27.4506C3.80038 27.3959 3.8379 27.3382 3.87148 27.2778C4.15544 26.8474 4.5272 26.4927 4.95823 26.2412C5.38926 25.9896 5.86808 25.8477 6.35794 25.8265H51.5954C52.1008 25.8603 52.5909 26.0263 53.0232 26.3103C53.2612 26.4671 53.4818 26.6526 53.6809 26.8631C53.9734 27.1944 54.202 27.5848 54.3535 28.0119C54.5049 28.4389 54.5762 28.8941 54.5631 29.3511V53.6774ZM47.569 19.123L48.3871 22.4402H23.7631L24.2925 22.2847L43.6548 16.635C43.9334 16.5645 44.2188 16.5297 44.505 16.5314C44.6811 16.5147 44.8583 16.5147 45.0344 16.5314C45.6443 16.6532 46.2082 16.9629 46.6581 17.4229C47.1079 17.8828 47.4243 18.4733 47.569 19.123ZM43.9115 10.1561L45.5157 13.1451C44.6215 13.0153 43.7127 13.0681 42.8367 13.3005L23.4584 18.9329L39.5 8.87758C39.989 8.5791 40.5422 8.42419 41.1042 8.42838C41.6722 8.4229 42.2315 8.57996 42.7247 8.88351C43.2179 9.18707 43.6275 9.62622 43.9115 10.1561ZM31.3669 4.59284C31.968 3.94926 32.7812 3.58802 33.6288 3.58802C34.4764 3.58802 35.2895 3.94926 35.8907 4.59284L37.3986 6.19962L19.5763 17.3952L31.3669 4.59284Z" fill="white"/>
<path id="Vector_2" d="M50.1831 34.897C48.8965 33.995 47.8731 32.7191 47.2315 31.217C47.0287 30.7126 46.6955 30.2816 46.2718 29.9753C45.848 29.669 45.3515 29.5003 44.8412 29.4893H12.9504C12.4402 29.5003 11.9436 29.669 11.5199 29.9753C11.0961 30.2816 10.763 30.7126 10.5602 31.217C9.93131 32.7508 8.90686 34.0581 7.60854 34.9834C7.26091 35.2256 6.97285 35.5548 6.76894 35.9429C6.56503 36.331 6.45131 36.7665 6.4375 37.2122V45.8508C6.4411 46.3106 6.54983 46.7623 6.75408 47.1661C6.95832 47.5699 7.25179 47.9133 7.60854 48.1659C8.91354 49.0907 9.93942 50.4057 10.5602 51.9496C10.7614 52.4553 11.0941 52.8875 11.5182 53.194C11.9423 53.5006 12.4397 53.6684 12.9504 53.6773H44.8412C45.352 53.6684 45.8494 53.5006 46.2735 53.194C46.6976 52.8875 47.0303 52.4553 47.2315 51.9496C47.8575 50.4184 48.8829 49.116 50.1831 48.2005C50.5513 47.9399 50.852 47.5828 51.0568 47.1627C51.2617 46.7426 51.364 46.2733 51.3542 45.7989V37.1603C51.3455 36.7087 51.2342 36.2663 51.0301 35.8718C50.826 35.4772 50.5351 35.1425 50.1831 34.897ZM48.1458 45.4188C46.5417 46.6523 45.2554 48.3052 44.4081 50.2219H13.3835C12.5362 48.3052 11.25 46.6523 9.64583 45.4188V37.575C11.2531 36.3597 12.5408 34.7169 13.3835 32.8065H44.4081C45.2509 34.7169 46.5386 36.3597 48.1458 37.575V45.4188Z" fill="white"/>
<path id="Vector_3" d="M28.8958 32.8242C27.3095 32.8242 25.7587 33.3309 24.4397 34.2801C23.1207 35.2293 22.0926 36.5785 21.4856 38.157C20.8785 39.7355 20.7196 41.4724 21.0291 43.1481C21.3386 44.8238 22.1025 46.3631 23.2243 47.5712C24.346 48.7794 25.7752 49.6021 27.331 49.9354C28.8869 50.2688 30.4997 50.0977 31.9653 49.4438C33.4309 48.79 34.6836 47.6828 35.5649 46.2622C36.4463 44.8416 36.9167 43.1714 36.9167 41.4628C36.9167 39.1717 36.0716 36.9745 34.5674 35.3544C33.0632 33.7344 31.0231 32.8242 28.8958 32.8242ZM28.8958 46.646C27.944 46.646 27.0136 46.342 26.2222 45.7725C25.4307 45.2029 24.8139 44.3934 24.4497 43.4463C24.0854 42.4992 23.9901 41.4571 24.1758 40.4516C24.3615 39.4462 24.8198 38.5226 25.4929 37.7978C26.1659 37.0729 27.0234 36.5792 27.957 36.3793C28.8905 36.1793 29.8581 36.2819 30.7375 36.6742C31.6169 37.0665 32.3685 37.7308 32.8973 38.5832C33.4261 39.4356 33.7083 40.4377 33.7083 41.4628C33.7233 42.1536 33.6099 42.8406 33.3747 43.4835C33.1396 44.1264 32.7875 44.7121 32.3391 45.2063C31.8907 45.7005 31.3551 46.0931 30.7638 46.3611C30.1725 46.6291 29.5374 46.7671 28.8958 46.7669V46.646Z" fill="white"/>
</g>
</svg>
