<svg width="77" height="77" viewBox="0 0 77 77" fill="none" xmlns="http://www.w3.org/2000/svg">
<path d="M47.2055 51.6841C47.0103 51.6842 46.8182 51.6366 46.6456 51.5455L38.501 47.2629L30.3559 51.5455C30.1572 51.65 29.9333 51.6967 29.7094 51.6806C29.4855 51.6644 29.2706 51.586 29.089 51.4541C28.9074 51.3222 28.7662 51.1421 28.6816 50.9343C28.5969 50.7264 28.5721 50.499 28.6099 50.2777L30.1655 41.2073L23.576 34.7839C23.4153 34.6273 23.3017 34.4288 23.2479 34.2109C23.1941 33.993 23.2024 33.7644 23.2718 33.551C23.3412 33.3376 23.4689 33.1478 23.6404 33.0032C23.812 32.8585 24.0206 32.7648 24.2427 32.7325L33.3496 31.4084L37.4219 23.1569C37.8284 22.3344 39.1737 22.3344 39.5802 23.1569L43.6525 31.4084L52.7588 32.7325C52.9809 32.7648 53.1895 32.8585 53.3611 33.0032C53.5327 33.1478 53.6604 33.3376 53.7297 33.551C53.7991 33.7644 53.8074 33.993 53.7536 34.2109C53.6999 34.4288 53.5862 34.6273 53.4256 34.7839L46.836 41.2073L48.3916 50.2777C48.421 50.4504 48.4124 50.6274 48.3664 50.7964C48.3204 50.9654 48.238 51.1224 48.1251 51.2563C48.0121 51.3902 47.8713 51.4978 47.7125 51.5717C47.5537 51.6456 47.3806 51.684 47.2055 51.6841ZM27.0014 34.7628L32.2986 39.9266C32.4381 40.0628 32.5424 40.2308 32.6027 40.4163C32.663 40.6017 32.6774 40.7989 32.6446 40.9911L31.3939 48.2815L37.9412 44.839C38.1136 44.7476 38.3058 44.6998 38.501 44.6998C38.6962 44.6998 38.8884 44.7476 39.0609 44.839L45.6076 48.2815L44.3574 40.9911C44.3247 40.7989 44.3391 40.6017 44.3993 40.4163C44.4596 40.2308 44.564 40.0628 44.7035 39.9266L50 34.7628L42.6802 33.6983C42.4872 33.6703 42.3039 33.5958 42.1461 33.4812C41.9883 33.3666 41.8607 33.2153 41.7744 33.0404L38.501 26.4079L35.2277 33.0405C35.1413 33.2154 35.0138 33.3666 34.8559 33.4813C34.6981 33.5959 34.5148 33.6704 34.3218 33.6984L27.0014 34.7628Z" fill="white"/>
<path d="M38.5013 60.2769C26.4935 60.2769 16.7246 50.5074 16.7246 38.4996C16.7246 26.4919 26.4935 16.7236 38.5013 16.7236C50.509 16.7236 60.278 26.492 60.278 38.4997C60.278 50.5075 50.509 60.2769 38.5013 60.2769ZM38.5013 19.1298C34.6702 19.1298 30.9251 20.2659 27.7396 22.3944C24.5541 24.5228 22.0714 27.5481 20.6053 31.0876C19.1392 34.6272 18.7556 38.5219 19.5031 42.2794C20.2506 46.037 22.0955 49.4884 24.8045 52.1974C27.5136 54.9064 30.9651 56.7512 34.7227 57.4985C38.4802 58.2459 42.375 57.8622 45.9145 56.396C49.4539 54.9298 52.4791 52.447 54.6075 49.2614C56.7359 46.0759 57.8718 42.3308 57.8717 38.4996C57.8657 33.3642 55.8229 28.4408 52.1916 24.8096C48.5602 21.1783 43.6367 19.1357 38.5013 19.1298Z" fill="white"/>
<path d="M44.4987 69.1119C43.7507 69.1114 43.0154 68.9179 42.3639 68.5503L39.4518 66.9137C39.1613 66.7507 38.8338 66.6652 38.5007 66.6652C38.1676 66.6652 37.8401 66.7507 37.5496 66.9137L34.6358 68.5503C33.6958 69.0813 32.5916 69.2426 31.5389 69.0028C30.4863 68.7629 29.561 68.139 28.9439 67.2532L27.0264 64.5133C26.8333 64.2433 26.5753 64.0262 26.2762 63.8823C25.9771 63.7383 25.6466 63.6721 25.3151 63.6897L21.976 63.8953C20.8991 63.9668 19.8343 63.6332 18.9908 62.96C18.1472 62.2867 17.5858 61.3225 17.4167 60.2565L16.878 56.9573C16.8254 56.6279 16.6883 56.3177 16.4802 56.057C16.272 55.7963 15.9998 55.594 15.6901 55.4699L12.5977 54.215C11.5959 53.8116 10.7807 53.0487 10.3118 52.0758C9.84293 51.1028 9.75413 49.9899 10.0628 48.9549L11.008 45.7497C11.1009 45.4309 11.1109 45.0936 11.0371 44.7698C10.9633 44.446 10.8081 44.1463 10.5862 43.8992L8.34153 41.4154C7.61663 40.6174 7.21495 39.578 7.21484 38.4999C7.21474 37.4218 7.6162 36.3824 8.34094 35.5842L10.5868 33.0992C10.8085 32.8518 10.9636 32.552 11.0374 32.228C11.1112 31.904 11.1013 31.5666 11.0086 31.2476L10.0628 28.0424C9.7544 27.0074 9.84332 25.8945 10.3122 24.9217C10.781 23.9488 11.596 23.1859 12.5977 22.7822L15.693 21.5262C16.0008 21.4001 16.2713 21.1976 16.4789 20.9377C16.6865 20.6778 16.8242 20.3692 16.8791 20.0411L17.4184 16.7407C17.5872 15.6746 18.1487 14.7101 18.9924 14.0367C19.8362 13.3634 20.9012 13.03 21.9783 13.102L25.3174 13.3088C25.6493 13.33 25.9811 13.2653 26.2807 13.1208C26.5803 12.9763 26.8375 12.757 27.0275 12.484L28.9445 9.74641C29.5613 8.85983 30.487 8.23552 31.5401 7.9958C32.5932 7.75608 33.6978 7.91823 34.6376 8.45048L37.5491 10.086C37.8403 10.2478 38.1679 10.3327 38.5011 10.3327C38.8342 10.3327 39.1618 10.2478 39.453 10.086L42.3651 8.44929C43.3049 7.91817 44.4091 7.75666 45.4617 7.99632C46.5143 8.23598 47.4397 8.85958 48.057 9.74524L49.9751 12.4852C50.1661 12.757 50.4234 12.9754 50.7227 13.1195C51.0219 13.2637 51.3531 13.3289 51.6846 13.3088L55.025 13.1032C56.1008 13.0368 57.1629 13.3723 58.0053 14.0446C58.8478 14.717 59.4105 15.6782 59.5843 16.742L60.1235 20.0423C60.1783 20.3706 60.316 20.6793 60.5236 20.9394C60.7312 21.1995 61.0017 21.4023 61.3096 21.5286L64.4031 22.7834C65.4052 23.1869 66.2207 23.9499 66.6897 24.9231C67.1586 25.8963 67.2474 27.0095 66.9386 28.0448L65.9934 31.2488C65.9004 31.5676 65.8903 31.9049 65.964 32.2287C66.0377 32.5525 66.1928 32.8521 66.4146 33.0993L68.6593 35.5831C69.384 36.3811 69.7856 37.4205 69.7857 38.4986C69.7858 39.5766 69.3845 40.616 68.6599 41.4143L66.4152 43.8992C66.1932 44.1464 66.0378 44.4463 65.9639 44.7703C65.89 45.0943 65.9 45.4318 65.9928 45.7509L66.9381 48.9561C67.2469 49.9911 67.1581 51.1041 66.6893 52.077C66.2204 53.05 65.4051 53.8129 64.4032 54.2162L61.3084 55.4722C61.0004 55.5984 60.7297 55.8011 60.522 56.0612C60.3144 56.3213 60.1766 56.6302 60.1217 56.9585L59.583 60.2577C59.4104 61.3222 58.8478 62.2844 58.0049 62.957C57.1619 63.6296 56.0988 63.9644 55.0226 63.8964L51.6846 63.6908C51.3525 63.67 51.0206 63.7349 50.7208 63.8793C50.421 64.0238 50.1634 64.2429 49.9727 64.5156L48.057 67.252C47.6578 67.8259 47.1257 68.2948 46.5061 68.6186C45.8865 68.9425 45.1978 69.1117 44.4987 69.1119ZM38.5007 64.2618C39.2466 64.2608 39.9803 64.4514 40.6315 64.8153L43.5429 66.4519C43.9626 66.69 44.4561 66.7626 44.9265 66.6554C45.397 66.5483 45.8104 66.2691 46.0855 65.8727L48.0018 63.1351C48.4316 62.5278 49.0087 62.0398 49.6789 61.7169C50.3491 61.3941 51.0905 61.2469 51.8332 61.2893L55.1712 61.4949C55.6523 61.5273 56.1282 61.3786 56.5052 61.0779C56.8823 60.7772 57.1331 60.3463 57.2085 59.87L57.7472 56.5708C57.8698 55.8356 58.1782 55.144 58.6431 54.5614C59.108 53.9789 59.714 53.5248 60.4037 53.2422L63.4979 51.9862C63.9453 51.8062 64.3095 51.4656 64.519 51.0312C64.7285 50.5967 64.7682 50.0998 64.6305 49.6375L63.6853 46.4323C63.4772 45.7179 63.4547 44.9622 63.62 44.2367C63.7853 43.5112 64.1329 42.8398 64.6299 42.2861L66.874 39.8022L66.8746 39.801C67.1982 39.4443 67.3774 38.98 67.3773 38.4985C67.3771 38.017 67.1977 37.5527 66.874 37.1962L64.6299 34.7136C64.1329 34.1598 63.7854 33.4884 63.6202 32.7629C63.455 32.0374 63.4776 31.2817 63.6859 30.5673L64.6311 27.3633C64.769 26.9008 64.7292 26.4036 64.5196 25.9689C64.31 25.5342 63.9456 25.1935 63.4979 25.0135L60.4049 23.7586C59.7153 23.4761 59.1093 23.022 58.6444 22.4394C58.1796 21.8569 57.8714 21.1652 57.749 20.4301L57.2097 17.1297C57.1301 16.6556 56.8783 16.2275 56.5025 15.9277C56.1267 15.6278 55.6535 15.4772 55.1735 15.5048L51.8332 15.7104C51.0906 15.7556 50.3487 15.6098 49.6784 15.2869C49.0081 14.964 48.4317 14.4747 48.0041 13.8658L46.086 11.1258C45.8101 10.7306 45.3969 10.4523 44.9269 10.3452C44.457 10.2381 43.964 10.3099 43.5441 10.5466L40.6309 12.1844C39.9796 12.5473 39.2465 12.7378 38.501 12.7378C37.7555 12.7378 37.0224 12.5473 36.3712 12.1844L33.4585 10.5477C33.0387 10.31 32.5452 10.2377 32.0748 10.3448C31.6044 10.452 31.1909 10.7309 30.9154 11.127L28.9991 13.8634C28.5723 14.4734 27.996 14.9636 27.3255 15.287C26.6549 15.6104 25.9125 15.7562 25.1694 15.7103L21.8291 15.5036C21.3492 15.4763 20.8761 15.627 20.5005 15.9269C20.1248 16.2267 19.8729 16.6545 19.793 17.1285L19.2537 20.4289C19.1311 21.1638 18.8227 21.8552 18.3579 22.4375C17.8931 23.0199 17.2872 23.4738 16.5978 23.7562L13.503 25.0122C13.0556 25.1927 12.6915 25.5335 12.4821 25.9681C12.2726 26.4026 12.2328 26.8997 12.3704 27.3621L13.3162 30.5661C13.5241 31.2805 13.5466 32.0361 13.3814 32.7616C13.2162 33.487 12.8689 34.1584 12.3721 34.7124L10.1262 37.1974C9.80274 37.5538 9.62353 38.0179 9.62353 38.4992C9.62353 38.9805 9.80274 39.4446 10.1262 39.801L12.3709 42.2848C12.868 42.8386 13.2156 43.51 13.3809 44.2355C13.5462 44.961 13.5237 45.7167 13.3156 46.4311L12.3704 49.6364C12.2326 50.0986 12.2724 50.5956 12.4819 51.03C12.6914 51.4644 13.0555 51.805 13.503 51.985L16.5959 53.2399C17.2855 53.5229 17.8914 53.9773 18.3563 54.56C18.8212 55.1427 19.1297 55.8344 19.2524 56.5696L19.7911 59.8688C19.8693 60.3436 20.1207 60.7725 20.4968 61.0727C20.8729 61.3728 21.347 61.5229 21.8273 61.4937L25.1676 61.2881C25.9106 61.2408 26.6533 61.3856 27.3241 61.7087C27.9949 62.0318 28.5711 62.5223 28.9973 63.1327L30.9148 65.8727C31.19 66.269 31.6033 66.5481 32.0737 66.6552C32.5441 66.7624 33.0376 66.6899 33.4573 66.4519L36.3705 64.8152C37.0215 64.4513 37.755 64.2607 38.5007 64.2618Z" fill="white"/>
</svg>
