<svg width="138" height="44" viewBox="0 0 138 44" fill="none" xmlns="http://www.w3.org/2000/svg">
<g id="Group 782">
<g id="sk">
<path d="M94.7376 43.5C92.9337 43.5 91.1097 43.3012 89.2657 42.9036C87.4617 42.4663 85.758 41.7307 84.1545 40.697C83.7136 40.4186 83.3929 40.0807 83.1924 39.6831C83.0321 39.2457 82.9719 38.8283 83.012 38.4307C83.0922 37.9933 83.2726 37.6156 83.5532 37.2975C83.8338 36.9794 84.1746 36.8005 84.5754 36.7608C85.0164 36.6812 85.4774 36.7806 85.9585 37.0589C87.5219 37.9337 89.0252 38.5499 90.4683 38.9078C91.9515 39.2656 93.4147 39.4445 94.8579 39.4445C97.0627 39.4445 98.7263 39.0469 99.8488 38.2517C100.971 37.4565 101.532 36.4029 101.532 35.0909C101.532 33.9776 101.152 33.1227 100.39 32.5264C99.6684 31.8902 98.5259 31.4131 96.9625 31.095L91.3703 29.9619C88.8849 29.4052 87.0007 28.4908 85.7179 27.2184C84.4752 25.9064 83.8539 24.2365 83.8539 22.2087C83.8539 20.4196 84.3349 18.8689 85.297 17.5569C86.2992 16.205 87.6822 15.1713 89.4461 14.4556C91.2099 13.7399 93.2343 13.3821 95.5193 13.3821C97.2832 13.3821 98.9468 13.6207 100.51 14.0978C102.114 14.5351 103.557 15.211 104.84 16.1255C105.321 16.4038 105.621 16.7617 105.742 17.199C105.902 17.5966 105.922 18.0141 105.802 18.4515C105.722 18.8491 105.541 19.187 105.261 19.4653C104.98 19.7436 104.619 19.9226 104.178 20.0021C103.737 20.0418 103.256 19.9226 102.735 19.6442C101.573 18.8491 100.37 18.2924 99.1272 17.9743C97.9246 17.6165 96.722 17.4376 95.5193 17.4376C93.3546 17.4376 91.711 17.8551 90.5886 18.69C89.5062 19.525 88.965 20.6184 88.965 21.9702C88.965 23.0039 89.2857 23.8588 89.9271 24.5347C90.6086 25.2106 91.6709 25.7076 93.1141 26.0257L98.7063 27.1588C101.312 27.7154 103.276 28.61 104.599 29.8426C105.922 31.0354 106.583 32.6655 106.583 34.733C106.583 37.4367 105.501 39.5837 103.336 41.1741C101.212 42.7247 98.3455 43.5 94.7376 43.5Z" fill="#504E4E"/>
<path d="M116.409 43.3807C115.567 43.3807 114.906 43.1422 114.425 42.6651C113.943 42.1879 113.703 41.4921 113.703 40.5777V3.24341C113.703 2.32894 113.943 1.65303 114.425 1.21567C114.906 0.738557 115.567 0.5 116.409 0.5C117.291 0.5 117.972 0.738557 118.453 1.21567C118.934 1.65303 119.175 2.32894 119.175 3.24341V26.7413H119.295L131.081 15.3502C131.682 14.7538 132.223 14.2966 132.704 13.9785C133.185 13.6604 133.807 13.5014 134.569 13.5014C135.33 13.5014 135.911 13.7002 136.312 14.0978C136.713 14.4556 136.914 14.9327 136.914 15.5291C136.914 16.0858 136.633 16.6424 136.072 17.199L123.564 29.2462V26.5624L137.214 39.6234C137.776 40.1801 138.036 40.7566 137.996 41.353C137.996 41.9494 137.776 42.4464 137.335 42.844C136.934 43.2018 136.392 43.3807 135.711 43.3807C134.909 43.3807 134.248 43.2217 133.727 42.9036C133.246 42.5855 132.684 42.0885 132.043 41.4126L119.295 29.4847H119.175V40.5777C119.175 42.4464 118.253 43.3807 116.409 43.3807Z" fill="#504E4E"/>
</g>
<g id="eta">
<path d="M15.1167 43.5C11.9823 43.5 9.28429 42.9009 7.02273 41.7028C4.80085 40.4647 3.07492 38.7273 1.84495 36.4908C0.614985 34.2143 0 31.5384 0 28.4631C0 25.4278 0.595146 22.7719 1.78544 20.4954C3.01541 18.2189 4.68182 16.4416 6.78467 15.1636C8.9272 13.8856 11.3673 13.2465 14.105 13.2465C16.0491 13.2465 17.7949 13.586 19.3423 14.265C20.9293 14.904 22.2783 15.8425 23.3893 17.0806C24.5002 18.3187 25.3334 19.8364 25.8889 21.6336C26.484 23.3909 26.7816 25.3879 26.7816 27.6244C26.7816 28.2634 26.5832 28.7627 26.1864 29.1221C25.8294 29.4416 25.2937 29.6014 24.5796 29.6014H4.22554V26.1267H23.2107L22.199 26.9654C22.199 24.8886 21.8816 23.1313 21.2467 21.6936C20.6516 20.2158 19.7589 19.0975 18.5686 18.3387C17.418 17.5799 15.9698 17.2005 14.224 17.2005C12.3195 17.2005 10.6928 17.6598 9.3438 18.5783C7.9948 19.457 6.96321 20.7151 6.24904 22.3525C5.53486 23.9501 5.17778 25.8072 5.17778 27.924V28.2834C5.17778 31.8779 6.03082 34.5937 7.73691 36.4309C9.44299 38.2681 11.9029 39.1866 15.1167 39.1866C16.3864 39.1866 17.6759 39.0269 18.9852 38.7074C20.3342 38.3879 21.6237 37.8088 22.8536 36.97C23.4488 36.6106 23.9844 36.4508 24.4605 36.4908C24.9763 36.4908 25.3929 36.6505 25.7103 36.97C26.0277 37.2496 26.2261 37.6091 26.3055 38.0484C26.3848 38.4478 26.3253 38.8871 26.1269 39.3664C25.9286 39.8456 25.5516 40.265 24.9962 40.6244C23.6868 41.543 22.1196 42.2619 20.2945 42.7811C18.5091 43.2604 16.7831 43.5 15.1167 43.5Z" fill="url(#paint0_linear_478_2783)"/>
<path d="M45.4813 43.5C43.1404 43.5 41.1764 43.0807 39.5893 42.2419C38.042 41.4032 36.8715 40.1851 36.078 38.5876C35.3241 36.99 34.9472 35.033 34.9472 32.7166V17.9793H31.1382C30.4241 17.9793 29.8686 17.7995 29.4718 17.4401C29.0751 17.0407 28.8767 16.5215 28.8767 15.8825C28.8767 15.2035 29.0751 14.6843 29.4718 14.3249C29.8686 13.9654 30.4241 13.7857 31.1382 13.7857H34.9472V7.25576C34.9472 6.33717 35.1852 5.65822 35.6614 5.21889C36.1375 4.73963 36.812 4.5 37.6849 4.5C38.5577 4.5 39.2124 4.73963 39.6488 5.21889C40.125 5.65822 40.363 6.33717 40.363 7.25576V13.7857H47.5643C48.3181 13.7857 48.8935 13.9654 49.2902 14.3249C49.687 14.6843 49.8854 15.2035 49.8854 15.8825C49.8854 16.5215 49.687 17.0407 49.2902 17.4401C48.8935 17.7995 48.3181 17.9793 47.5643 17.9793H40.363V32.2373C40.363 34.4339 40.8193 36.0914 41.7319 37.2097C42.6444 38.328 44.1521 38.8871 46.255 38.8871C47.0088 38.8871 47.6437 38.8272 48.1594 38.7074C48.6752 38.5476 49.1315 38.4677 49.5283 38.4677C49.8854 38.4278 50.1829 38.5476 50.421 38.8272C50.6987 39.1068 50.8376 39.626 50.8376 40.3848C50.8376 40.9439 50.7384 41.4631 50.54 41.9424C50.3813 42.3817 50.0441 42.6813 49.5283 42.841C49.0522 43.0008 48.4173 43.1406 47.6238 43.2604C46.8303 43.4201 46.1161 43.5 45.4813 43.5Z" fill="url(#paint1_linear_478_2783)"/>
<path d="M64.0141 43.5C62.0302 43.5 60.2249 43.1006 58.5982 42.3018C57.0112 41.5031 55.7614 40.4247 54.8488 39.0668C53.9759 37.7089 53.5395 36.1912 53.5395 34.5138C53.5395 32.3571 54.0751 30.6598 55.1464 29.4217C56.2176 28.1836 58.0229 27.3049 60.5622 26.7857C63.1015 26.2266 66.5137 25.947 70.7987 25.947H73.5959V29.4217H70.9177C67.8627 29.4217 65.4424 29.5614 63.657 29.841C61.9112 30.1206 60.6812 30.6198 59.9671 31.3387C59.2529 32.0177 58.8958 32.9762 58.8958 34.2143C58.8958 35.7719 59.4314 37.0499 60.5027 38.0484C61.6136 39.0469 63.1213 39.5461 65.0258 39.5461C66.5335 39.5461 67.8627 39.1866 69.0133 38.4677C70.1639 37.7089 71.0765 36.7104 71.751 35.4724C72.4255 34.1943 72.7627 32.7366 72.7627 31.0991V24.2097C72.7627 21.8533 72.2866 20.1559 71.3344 19.1175C70.3821 18.0392 68.7752 17.5 66.5137 17.5C65.2043 17.5 63.8553 17.6797 62.4667 18.0392C61.078 18.3986 59.6298 18.9578 58.1221 19.7166C57.527 19.9962 57.0112 20.096 56.5747 20.0161C56.1383 19.8963 55.7812 19.6567 55.5035 19.2972C55.2654 18.8979 55.1265 18.4785 55.0869 18.0392C55.0869 17.5599 55.186 17.1006 55.3844 16.6613C55.6225 16.222 56.0192 15.9025 56.5747 15.7028C58.3205 14.8241 60.0464 14.2051 61.7525 13.8456C63.4983 13.4462 65.125 13.2465 66.6327 13.2465C69.2117 13.2465 71.3344 13.6659 73.0008 14.5046C74.6672 15.3034 75.917 16.5614 76.7502 18.2788C77.5834 19.9562 78 22.1129 78 24.7488V40.5645C78 41.4831 77.7818 42.182 77.3453 42.6613C76.9089 43.1406 76.2741 43.3802 75.4409 43.3802C74.6473 43.3802 74.0125 43.1406 73.5364 42.6613C73.1 42.182 72.8817 41.4831 72.8817 40.5645V36.3111H73.4174C73.1 37.7888 72.5048 39.0668 71.6319 40.1452C70.759 41.2235 69.6679 42.0622 68.3586 42.6613C67.089 43.2204 65.6408 43.5 64.0141 43.5Z" fill="url(#paint2_linear_478_2783)"/>
</g>
</g>
<defs>
<linearGradient id="paint0_linear_478_2783" x1="2.03094" y1="21.4315" x2="74.1655" y2="41.0805" gradientUnits="userSpaceOnUse">
<stop stop-color="#FF4588"/>
<stop offset="1" stop-color="#38A0FF"/>
</linearGradient>
<linearGradient id="paint1_linear_478_2783" x1="2.03094" y1="21.4315" x2="74.1655" y2="41.0805" gradientUnits="userSpaceOnUse">
<stop stop-color="#FF4588"/>
<stop offset="1" stop-color="#38A0FF"/>
</linearGradient>
<linearGradient id="paint2_linear_478_2783" x1="2.03094" y1="21.4315" x2="74.1655" y2="41.0805" gradientUnits="userSpaceOnUse">
<stop stop-color="#FF4588"/>
<stop offset="1" stop-color="#38A0FF"/>
</linearGradient>
</defs>
</svg>
