<svg width="30" height="30" viewBox="0 0 30 30" fill="none" xmlns="http://www.w3.org/2000/svg">
<g id="calendar 1">
<path id="Vector" fill-rule="evenodd" clip-rule="evenodd" d="M26.25 7.5V5.63625C26.25 4.59375 25.4063 3.75 24.3638 3.75H20.625V5.625H18.75V3.75H11.25V5.625H9.375V3.75H5.63625C4.59375 3.75 3.75 4.59375 3.75 5.63625V24.3638C3.75 25.4062 4.59375 26.25 5.63625 26.25H24.3638C25.4063 26.25 26.25 25.4062 26.25 24.3638V9.375H3.75V7.5H26.25ZM20.625 1.875H24.3638C26.4413 1.875 28.125 3.55688 28.125 5.63625V24.3638C28.1252 24.8578 28.0281 25.347 27.8392 25.8034C27.6503 26.2599 27.3732 26.6746 27.0239 27.0239C26.6746 27.3732 26.2599 27.6503 25.8034 27.8392C25.347 28.0281 24.8578 28.1252 24.3638 28.125H5.63625C5.14225 28.1252 4.65304 28.0281 4.19659 27.8392C3.74014 27.6503 3.32541 27.3732 2.9761 27.0239C2.62678 26.6746 2.34974 26.2599 2.16081 25.8034C1.97187 25.347 1.87475 24.8578 1.875 24.3638V5.63625C1.875 3.55875 3.55688 1.875 5.63625 1.875H9.375V0H11.25V1.875H18.75V0H20.625V1.875ZM7.5 13.125H11.25V15H7.5V13.125ZM13.125 13.125H16.875V15H13.125V13.125ZM18.75 13.125H22.5V15H18.75V13.125ZM7.5 16.875H11.25V18.75H7.5V16.875ZM13.125 16.875H16.875V18.75H13.125V16.875ZM18.75 16.875H22.5V18.75H18.75V16.875ZM7.5 20.625H11.25V22.5H7.5V20.625ZM13.125 20.625H16.875V22.5H13.125V20.625ZM18.75 20.625H22.5V22.5H18.75V20.625Z" fill="black" fill-opacity="0.8"/>
</g>
</svg>
