<svg width="25" height="25" viewBox="0 0 25 25" fill="none" xmlns="http://www.w3.org/2000/svg">
<g id="call_FILL0_wght400_GRAD0_opsz48 1">
<path id="Vector" d="M20.375 21.5C18.3417 21.5 16.3208 21 14.3125 20C12.3042 19 10.5 17.7 8.9 16.1C7.3 14.5 6 12.6958 5 10.6875C4 8.67917 3.5 6.65833 3.5 4.625C3.5 4.30357 3.60714 4.03571 3.82142 3.82142C4.03571 3.60714 4.30357 3.5 4.625 3.5H8.125C8.35185 3.5 8.5544 3.57917 8.73265 3.7375C8.91088 3.89583 9.025 4.10833 9.075 4.375L9.75 7.525C9.78333 7.75833 9.77917 7.97083 9.7375 8.1625C9.69583 8.35417 9.60833 8.51667 9.475 8.65L6.975 11.175C7.90833 12.725 8.95417 14.075 10.1125 15.225C11.2708 16.375 12.5833 17.35 14.05 18.15L16.425 15.7C16.5917 15.5167 16.7833 15.3875 17 15.3125C17.2167 15.2375 17.4333 15.225 17.65 15.275L20.625 15.925C20.8802 15.9812 21.0898 16.1078 21.2539 16.3047C21.418 16.5016 21.5 16.7333 21.5 17V20.375C21.5 20.6964 21.3929 20.9643 21.1786 21.1786C20.9643 21.3929 20.6964 21.5 20.375 21.5ZM6.225 9.8L8.25 7.75L7.675 5H5C5 5.65 5.1 6.3625 5.3 7.1375C5.5 7.9125 5.80833 8.8 6.225 9.8ZM15.45 18.875C16.1333 19.1917 16.875 19.45 17.675 19.65C18.475 19.85 19.25 19.9667 20 20V17.325L17.425 16.8L15.45 18.875Z" fill="black" fill-opacity="0.8"/>
</g>
</svg>
