<svg width="24" height="24" viewBox="0 0 24 24" fill="none" xmlns="http://www.w3.org/2000/svg">
<g id="instagram (1) 1" clip-path="url(#clip0_649_338)">
<path id="Instagram" fill-rule="evenodd" clip-rule="evenodd" d="M17.7143 1.71429C18.9267 1.71429 20.0895 2.19598 20.9468 3.05329C21.8041 3.9106 22.2857 5.0733 22.2857 6.28571V17.7143C22.2857 18.9267 21.8041 20.0894 20.9468 20.9467C20.0895 21.804 18.9267 22.2857 17.7143 22.2857H6.28571C5.0733 22.2857 3.91053 21.804 3.05322 20.9467C2.19591 20.0894 1.71429 18.9267 1.71429 17.7143V6.28571C1.71429 5.0733 2.19591 3.9106 3.05322 3.05329C3.91053 2.19598 5.0733 1.71429 6.28571 1.71429H17.7143ZM17.7143 0H6.28571C4.6191 0.00151304 3.02118 0.664301 1.84271 1.84277C0.66424 3.02125 0.00151304 4.6191 0 6.28571V17.7143C0.00151304 19.3809 0.66424 20.9788 1.84271 22.1572C3.02118 23.3357 4.6191 23.9985 6.28571 24H17.7143C19.3809 23.9985 20.9788 23.3357 22.1573 22.1572C23.3358 20.9788 23.9985 19.3809 24 17.7143V6.28571C23.9985 4.6191 23.3358 3.02125 22.1573 1.84277C20.9788 0.664301 19.3809 0.00151304 17.7143 0ZM12 6.85714C13.0172 6.85714 14.0115 7.15881 14.8572 7.72391C15.703 8.28902 16.3621 9.09221 16.7514 10.0319C17.1406 10.9717 17.2425 12.0057 17.044 13.0033C16.8456 14.001 16.3558 14.9173 15.6366 15.6366C14.9173 16.3558 14.0009 16.8456 13.0033 17.0441C12.0057 17.2425 10.9716 17.1406 10.0319 16.7514C9.09218 16.3621 8.28897 15.703 7.72387 14.8573C7.15876 14.0115 6.85714 13.0172 6.85714 12C6.85714 10.636 7.39897 9.32789 8.36345 8.36342C9.32792 7.39895 10.636 6.85714 12 6.85714ZM12 5.14286C10.6438 5.14286 9.31803 5.54508 8.19038 6.29855C7.06273 7.05202 6.18383 8.12286 5.66483 9.37584C5.14583 10.6288 5.01003 12.0076 5.27461 13.3378C5.5392 14.6679 6.19228 15.8898 7.15127 16.8488C8.11026 17.8078 9.33208 18.4609 10.6622 18.7254C11.9924 18.99 13.3711 18.8542 14.6241 18.3352C15.8771 17.8162 16.948 16.9372 17.7015 15.8096C18.455 14.6819 18.8571 13.3562 18.8571 12C18.8555 10.1819 18.1325 8.43864 16.8469 7.15304C15.5613 5.86744 13.8181 5.14452 12 5.14286ZM19.7143 4.85714C19.7143 5.08318 19.6473 5.30411 19.5217 5.49205C19.3961 5.67999 19.2176 5.82645 19.0088 5.91295C18.8 5.99945 18.5702 6.02219 18.3485 5.9781C18.1268 5.934 17.9231 5.82515 17.7633 5.66532C17.6035 5.50549 17.4946 5.30177 17.4505 5.08008C17.4064 4.85839 17.4291 4.62861 17.5156 4.41978C17.6021 4.21095 17.7485 4.03253 17.9365 3.90695C18.1244 3.78137 18.3454 3.71429 18.5714 3.71429C18.8745 3.71429 19.1652 3.83464 19.3796 4.04897C19.5939 4.2633 19.7143 4.55404 19.7143 4.85714Z" fill="black" fill-opacity="0.8"/>
</g>
<defs>
<clipPath id="clip0_649_338">
<rect width="24" height="24" fill="white"/>
</clipPath>
</defs>
</svg>
