<svg width="24" height="24" viewBox="0 0 24 24" fill="none" xmlns="http://www.w3.org/2000/svg">
<g id="local_drink_FILL0_wght400_GRAD0_opsz48 1">
<path id="Vector" d="M6.89352 22C6.34784 22 5.9125 21.8417 5.5875 21.525C5.2625 21.2083 5.0747 20.7993 5.0241 20.298L3 2H21L18.9759 20.298C18.9253 20.7993 18.7375 21.2083 18.4125 21.525C18.0875 21.8417 17.6583 22 17.125 22H6.89352ZM5.35 9.5L6.5491 20.5H17.45L18.65 9.5H5.35ZM5.175 8H18.825L19.325 3.5H4.675L5.175 8ZM12 19.175C12.75 19.175 13.3875 18.9193 13.9125 18.4079C14.4375 17.8965 14.7 17.2689 14.7 16.525C14.7 15.7417 14.4625 14.9083 13.9875 14.025C13.5125 13.1417 12.85 12.3 12 11.5C11.15 12.3 10.4875 13.1417 10.0125 14.025C9.5375 14.9083 9.3 15.7417 9.3 16.525C9.3 17.2689 9.5625 17.8965 10.0875 18.4079C10.6125 18.9193 11.25 19.175 12 19.175ZM12 17.675C11.66 17.675 11.375 17.56 11.145 17.33C10.915 17.1 10.8 16.815 10.8 16.475C10.8 16.125 10.8958 15.7083 11.0875 15.225C11.2792 14.7417 11.5833 14.2333 12 13.7C12.4167 14.25 12.7208 14.7667 12.9125 15.25C13.1042 15.7333 13.2 16.1417 13.2 16.475C13.2 16.815 13.085 17.1 12.855 17.33C12.625 17.56 12.34 17.675 12 17.675Z" fill="white" fill-opacity="0.8"/>
</g>
</svg>
