<svg width="24" height="25" viewBox="0 0 24 25" fill="none" xmlns="http://www.w3.org/2000/svg">
<g id="mail_FILL0_wght400_GRAD0_opsz48 (1) 1">
<path id="Vector" d="M3.5 20.5C3.1 20.5 2.75 20.35 2.45 20.05C2.15 19.75 2 19.4 2 19V6C2 5.6 2.15 5.25 2.45 4.95C2.75 4.65 3.1 4.5 3.5 4.5H20.5C20.9 4.5 21.25 4.65 21.55 4.95C21.85 5.25 22 5.6 22 6V19C22 19.4 21.85 19.75 21.55 20.05C21.25 20.35 20.9 20.5 20.5 20.5H3.5ZM12 12.95L3.5 7.375V19H20.5V7.375L12 12.95ZM12 11.45L20.4 6H3.625L12 11.45ZM3.5 7.375V6V19V7.375Z" fill="black" fill-opacity="0.8"/>
</g>
</svg>
