<svg width="30" height="30" viewBox="0 0 30 30" fill="none" xmlns="http://www.w3.org/2000/svg">
<g id="search 1" clip-path="url(#clip0_118_950)">
<path id="Vector" d="M28.125 26.8032L21.0469 19.6875C22.739 17.6459 23.5796 15.0308 23.3941 12.3856C23.2086 9.74031 22.0113 7.26817 20.0508 5.48262C18.0902 3.69708 15.5173 2.73537 12.8662 2.79724C10.2152 2.85912 7.68991 3.93983 5.81484 5.8149C3.93977 7.68997 2.85906 10.2153 2.79718 12.8663C2.73531 15.5173 3.69702 18.0903 5.48256 20.0508C7.26811 22.0113 9.74025 23.2087 12.3855 23.3942C15.0308 23.5797 17.6458 22.739 19.6875 21.0469L26.8031 28.125L28.125 26.8032ZM4.68748 13.125C4.68748 11.4563 5.18233 9.82496 6.10946 8.43742C7.03658 7.04988 8.35434 5.96842 9.89609 5.32981C11.4378 4.69119 13.1343 4.5241 14.7711 4.84967C16.4078 5.17523 17.9112 5.97882 19.0912 7.15883C20.2712 8.33883 21.0748 9.84225 21.4004 11.479C21.7259 13.1157 21.5588 14.8122 20.9202 16.3539C20.2816 17.8957 19.2001 19.2134 17.8126 20.1406C16.4251 21.0677 14.7938 21.5625 13.125 21.5625C10.8872 21.5625 8.74111 20.6736 7.15877 19.0913C5.57643 17.5089 4.68748 15.3628 4.68748 13.125Z" fill="black"/>
</g>
<defs>
<clipPath id="clip0_118_950">
<rect width="30" height="30" fill="white"/>
</clipPath>
</defs>
</svg>
