<svg width="161" height="32" viewBox="0 0 161 32" fill="none" xmlns="http://www.w3.org/2000/svg">
<path d="M16.5 0L20.0922 11.0557H31.7169L22.3123 17.8885L25.9046 28.9443L16.5 22.1115L7.09544 28.9443L10.6877 17.8885L1.2831 11.0557H12.9078L16.5 0Z" fill="#F5C75A"/>
<path d="M48.5 0L52.0922 11.0557H63.7169L54.3123 17.8885L57.9046 28.9443L48.5 22.1115L39.0954 28.9443L42.6877 17.8885L33.2831 11.0557H44.9078L48.5 0Z" fill="#F5C75A"/>
<path d="M80.5 0L84.0922 11.0557H95.7169L86.3123 17.8885L89.9046 28.9443L80.5 22.1115L71.0954 28.9443L74.6877 17.8885L65.2831 11.0557H76.9078L80.5 0Z" fill="#F5C75A"/>
<path d="M112.5 0L116.092 11.0557H127.717L118.312 17.8885L121.905 28.9443L112.5 22.1115L103.095 28.9443L106.688 17.8885L97.2831 11.0557H108.908L112.5 0Z" fill="#F5C75A"/>
<path d="M144.5 0L148.092 11.0557H159.717L150.312 17.8885L153.905 28.9443L144.5 22.1115L135.095 28.9443L138.688 17.8885L129.283 11.0557H140.908L144.5 0Z" fill="#F5C75A"/>
</svg>
