<svg width="24" height="25" viewBox="0 0 24 25" fill="none" xmlns="http://www.w3.org/2000/svg">
<g id="schedule_FILL0_wght400_GRAD0_opsz48 1">
<path id="Vector" d="M15.675 17.325L16.8 16.2L12.825 12.2V7.175H11.325V12.8L15.675 17.325ZM12 22.5C10.6333 22.5 9.34167 22.2375 8.125 21.7125C6.90833 21.1875 5.84583 20.4708 4.9375 19.5625C4.02917 18.6542 3.3125 17.5917 2.7875 16.375C2.2625 15.1583 2 13.8667 2 12.5C2 11.1333 2.2625 9.84167 2.7875 8.625C3.3125 7.40833 4.02917 6.34583 4.9375 5.4375C5.84583 4.52917 6.90833 3.8125 8.125 3.2875C9.34167 2.7625 10.6333 2.5 12 2.5C13.3667 2.5 14.6583 2.7625 15.875 3.2875C17.0917 3.8125 18.1542 4.52917 19.0625 5.4375C19.9708 6.34583 20.6875 7.40833 21.2125 8.625C21.7375 9.84167 22 11.1333 22 12.5C22 13.8667 21.7375 15.1583 21.2125 16.375C20.6875 17.5917 19.9708 18.6542 19.0625 19.5625C18.1542 20.4708 17.0917 21.1875 15.875 21.7125C14.6583 22.2375 13.3667 22.5 12 22.5ZM12 21C14.3333 21 16.3333 20.1667 18 18.5C19.6667 16.8333 20.5 14.8333 20.5 12.5C20.5 10.1667 19.6667 8.16667 18 6.5C16.3333 4.83333 14.3333 4 12 4C9.66667 4 7.66667 4.83333 6 6.5C4.33333 8.16667 3.5 10.1667 3.5 12.5C3.5 14.8333 4.33333 16.8333 6 18.5C7.66667 20.1667 9.66667 21 12 21Z" fill="black"/>
</g>
</svg>
