<svg width="24" height="24" viewBox="0 0 24 24" fill="none" xmlns="http://www.w3.org/2000/svg">
<path d="M12 22C10.6333 22 9.34167 21.7375 8.125 21.2125C6.90833 20.6875 5.84583 19.9708 4.9375 19.0625C4.02917 18.1542 3.3125 17.0917 2.7875 15.875C2.2625 14.6583 2 13.3667 2 12C2 10.5833 2.26667 9.26667 2.8 8.05C3.33333 6.83333 4.0625 5.775 4.9875 4.875C5.9125 3.975 6.99583 3.27083 8.2375 2.7625C9.47917 2.25417 10.8083 2 12.225 2C13.5417 2 14.7917 2.22083 15.975 2.6625C17.1583 3.10417 18.1958 3.71667 19.0875 4.5C19.9792 5.28333 20.6875 6.2125 21.2125 7.2875C21.7375 8.3625 22 9.54167 22 10.825C22 12.625 21.475 14.0458 20.425 15.0875C19.375 16.1292 17.9833 16.65 16.25 16.65H14.375C14.075 16.65 13.8167 16.7667 13.6 17C13.3833 17.2333 13.275 17.4917 13.275 17.775C13.275 18.225 13.3958 18.6083 13.6375 18.925C13.8792 19.2417 14 19.6083 14 20.025C14 20.6583 13.825 21.1458 13.475 21.4875C13.125 21.8292 12.6333 22 12 22ZM6.175 12.65C6.50833 12.65 6.8 12.525 7.05 12.275C7.3 12.025 7.425 11.7333 7.425 11.4C7.425 11.0667 7.3 10.775 7.05 10.525C6.8 10.275 6.50833 10.15 6.175 10.15C5.84167 10.15 5.55 10.275 5.3 10.525C5.05 10.775 4.925 11.0667 4.925 11.4C4.925 11.7333 5.05 12.025 5.3 12.275C5.55 12.525 5.84167 12.65 6.175 12.65ZM9.325 8.4C9.65833 8.4 9.95 8.275 10.2 8.025C10.45 7.775 10.575 7.48333 10.575 7.15C10.575 6.81667 10.45 6.525 10.2 6.275C9.95 6.025 9.65833 5.9 9.325 5.9C8.99167 5.9 8.7 6.025 8.45 6.275C8.2 6.525 8.075 6.81667 8.075 7.15C8.075 7.48333 8.2 7.775 8.45 8.025C8.7 8.275 8.99167 8.4 9.325 8.4ZM14.675 8.4C15.0083 8.4 15.3 8.275 15.55 8.025C15.8 7.775 15.925 7.48333 15.925 7.15C15.925 6.81667 15.8 6.525 15.55 6.275C15.3 6.025 15.0083 5.9 14.675 5.9C14.3417 5.9 14.05 6.025 13.8 6.275C13.55 6.525 13.425 6.81667 13.425 7.15C13.425 7.48333 13.55 7.775 13.8 8.025C14.05 8.275 14.3417 8.4 14.675 8.4ZM17.95 12.65C18.2833 12.65 18.575 12.525 18.825 12.275C19.075 12.025 19.2 11.7333 19.2 11.4C19.2 11.0667 19.075 10.775 18.825 10.525C18.575 10.275 18.2833 10.15 17.95 10.15C17.6167 10.15 17.325 10.275 17.075 10.525C16.825 10.775 16.7 11.0667 16.7 11.4C16.7 11.7333 16.825 12.025 17.075 12.275C17.325 12.525 17.6167 12.65 17.95 12.65ZM12 20.5C12.1833 20.5 12.3125 20.4625 12.3875 20.3875C12.4625 20.3125 12.5 20.1917 12.5 20.025C12.5 19.7917 12.3792 19.575 12.1375 19.375C11.8958 19.175 11.775 18.7333 11.775 18.05C11.775 17.2833 12.025 16.6083 12.525 16.025C13.025 15.4417 13.6583 15.15 14.425 15.15H16.25C17.5167 15.15 18.5417 14.7792 19.325 14.0375C20.1083 13.2958 20.5 12.225 20.5 10.825C20.5 8.625 19.6667 6.85417 18 5.5125C16.3333 4.17083 14.4083 3.5 12.225 3.5C9.79167 3.5 7.72917 4.32083 6.0375 5.9625C4.34583 7.60417 3.5 9.61667 3.5 12C3.5 14.35 4.32917 16.3542 5.9875 18.0125C7.64583 19.6708 9.65 20.5 12 20.5Z" fill="black"/>
</svg>
