<svg width="25" height="25" viewBox="0 0 25 25" fill="none" xmlns="http://www.w3.org/2000/svg">
<g id="edit_note_FILL0_wght400_GRAD0_opsz48 1">
<path id="Vector" d="M12.0486 21.0667V19.2917L17.4486 13.8917L19.2236 15.6667L13.8236 21.0667H12.0486ZM3.04858 15.8167V14.3167H10.5486V15.8167H3.04858ZM20.2986 14.5917L18.5236 12.8167L19.2486 12.0917C19.3819 11.9583 19.5569 11.8917 19.7736 11.8917C19.9903 11.8917 20.1653 11.9583 20.2986 12.0917L21.0236 12.8167C21.1569 12.95 21.2236 13.125 21.2236 13.3417C21.2236 13.5583 21.1569 13.7333 21.0236 13.8667L20.2986 14.5917ZM3.04858 11.6917V10.1917H14.7986V11.6917H3.04858ZM3.04858 7.56665V6.06665H14.7986V7.56665H3.04858Z" fill="black"/>
</g>
</svg>
