<svg width="25" height="25" viewBox="0 0 25 25" fill="none" xmlns="http://www.w3.org/2000/svg">
<g id="emoji_symbols_FILL0_wght400_GRAD0_opsz48 1">
<path id="Vector" d="M3.04858 3.56665V2.06665H10.8736V3.56665H3.04858ZM6.22358 10.6917V6.11665H3.04858V4.61665H10.8736V6.11665H7.69858V10.6917H6.22358ZM13.7236 21.6667L12.6486 20.5917L20.4736 12.7667L21.5486 13.8417L13.7236 21.6667ZM14.6486 15.9417C14.2653 15.9417 13.9444 15.8125 13.6861 15.5542C13.4278 15.2958 13.2986 14.975 13.2986 14.5917C13.2986 14.2083 13.4278 13.8875 13.6861 13.6292C13.9444 13.3708 14.2653 13.2417 14.6486 13.2417C15.0319 13.2417 15.3528 13.3708 15.6111 13.6292C15.8694 13.8875 15.9986 14.2083 15.9986 14.5917C15.9986 14.975 15.8694 15.2958 15.6111 15.5542C15.3528 15.8125 15.0319 15.9417 14.6486 15.9417ZM19.6986 21.1167C19.3153 21.1167 18.9944 20.9875 18.7361 20.7292C18.4778 20.4708 18.3486 20.15 18.3486 19.7667C18.3486 19.3833 18.4778 19.0625 18.7361 18.8042C18.9944 18.5458 19.3153 18.4167 19.6986 18.4167C20.0819 18.4167 20.4028 18.5458 20.6611 18.8042C20.9194 19.0625 21.0486 19.3833 21.0486 19.7667C21.0486 20.15 20.9194 20.4708 20.6611 20.7292C20.4028 20.9875 20.0819 21.1167 19.6986 21.1167ZM15.7486 11.0667C15.1153 11.0667 14.5819 10.8375 14.1486 10.3792C13.7153 9.92082 13.4986 9.39998 13.4986 8.81665C13.4986 8.18332 13.7153 7.64998 14.1486 7.21665C14.5819 6.78332 15.1153 6.56665 15.7486 6.56665C15.9653 6.56665 16.1611 6.59582 16.3361 6.65415C16.5111 6.71248 16.6653 6.78332 16.7986 6.86665V2.79165C16.7986 2.59165 16.8694 2.42082 17.0111 2.27915C17.1528 2.13748 17.3236 2.06665 17.5236 2.06665H21.0486V3.54165H17.9986V8.81665C17.9986 9.44998 17.7819 9.98332 17.3486 10.4167C16.9153 10.85 16.3819 11.0667 15.7486 11.0667ZM5.32358 22.0667C4.69025 22.0667 4.15275 21.8458 3.71108 21.4042C3.26942 20.9625 3.04858 20.425 3.04858 19.7917C3.04858 19.4583 3.10692 19.1542 3.22358 18.8792C3.34025 18.6042 3.51525 18.35 3.74858 18.1167L5.04858 16.8167L4.54858 16.3167C4.31525 16.0833 4.13608 15.8208 4.01108 15.5292C3.88608 15.2375 3.82358 14.95 3.82358 14.6667C3.82358 14.0333 4.04442 13.4958 4.48608 13.0542C4.92775 12.6125 5.46525 12.3917 6.09858 12.3917C6.73192 12.3917 7.26942 12.6125 7.71108 13.0542C8.15275 13.4958 8.37358 14.0333 8.37358 14.6667C8.37358 14.95 8.32775 15.2375 8.23608 15.5292C8.14442 15.8208 7.98192 16.0833 7.74858 16.3167L7.24858 16.8167L8.49858 18.0667L9.99858 16.5667L11.0486 17.6167L9.47358 19.1917L10.7986 20.5167L9.77358 21.5417L8.29858 20.0667L7.02358 21.3417C6.79025 21.575 6.53192 21.7542 6.24858 21.8792C5.96525 22.0042 5.65692 22.0667 5.32358 22.0667ZM6.09858 15.8167L6.67358 15.2417C6.75692 15.1583 6.81108 15.075 6.83608 14.9917C6.86108 14.9083 6.87358 14.8 6.87358 14.6667C6.87358 14.4333 6.80275 14.2458 6.66108 14.1042C6.51942 13.9625 6.33192 13.8917 6.09858 13.8917C5.86525 13.8917 5.67775 13.9625 5.53608 14.1042C5.39442 14.2458 5.32358 14.4333 5.32358 14.6667C5.32358 14.8 5.33608 14.9083 5.36108 14.9917C5.38608 15.075 5.44025 15.1583 5.52358 15.2417L6.09858 15.8167ZM5.32358 20.5667C5.40692 20.5667 5.50692 20.5417 5.62358 20.4917C5.74025 20.4417 5.84025 20.375 5.92358 20.2917L7.22358 18.9917L6.14858 17.9167L4.82358 19.2417C4.74025 19.325 4.67775 19.4167 4.63608 19.5167C4.59442 19.6167 4.57358 19.7167 4.57358 19.8167C4.57358 20.05 4.64025 20.2333 4.77358 20.3667C4.90692 20.5 5.09025 20.5667 5.32358 20.5667Z" fill="black"/>
</g>
</svg>
