<svg width="24" height="24" viewBox="0 0 24 24" fill="none" xmlns="http://www.w3.org/2000/svg">
<g id="note_alt_FILL0_wght400_GRAD0_opsz48 1">
<path id="Vector" d="M7.15 16.775H8.65L15.025 10.4L13.55 8.875L7.15 15.275V16.775ZM15.475 9.95L16.45 8.975C16.5667 8.85833 16.6292 8.72917 16.6375 8.5875C16.6458 8.44583 16.5833 8.30833 16.45 8.175L15.725 7.475C15.5917 7.34167 15.4583 7.27917 15.325 7.2875C15.1917 7.29583 15.0667 7.35833 14.95 7.475L14 8.425L15.475 9.95ZM4.5 21C4.0875 21 3.73438 20.8531 3.44063 20.5594C3.14688 20.2656 3 19.9125 3 19.5V4.5C3 4.0875 3.14688 3.73438 3.44063 3.44062C3.73438 3.14688 4.0875 3 4.5 3H9.625C9.70833 2.41667 9.975 1.9375 10.425 1.5625C10.875 1.1875 11.4 1 12 1C12.6 1 13.125 1.1875 13.575 1.5625C14.025 1.9375 14.2917 2.41667 14.375 3H19.5C19.9125 3 20.2656 3.14688 20.5594 3.44062C20.8531 3.73438 21 4.0875 21 4.5V19.5C21 19.9125 20.8531 20.2656 20.5594 20.5594C20.2656 20.8531 19.9125 21 19.5 21H4.5ZM4.5 19.5H19.5V4.5H4.5V19.5ZM12 4.075C12.2333 4.075 12.4375 3.9875 12.6125 3.8125C12.7875 3.6375 12.875 3.43333 12.875 3.2C12.875 2.96667 12.7875 2.7625 12.6125 2.5875C12.4375 2.4125 12.2333 2.325 12 2.325C11.7667 2.325 11.5625 2.4125 11.3875 2.5875C11.2125 2.7625 11.125 2.96667 11.125 3.2C11.125 3.43333 11.2125 3.6375 11.3875 3.8125C11.5625 3.9875 11.7667 4.075 12 4.075Z" fill="black"/>
</g>
</svg>
