<svg width="25" height="25" viewBox="0 0 25 25" fill="none" xmlns="http://www.w3.org/2000/svg">
<g id="photo_camera_FILL0_wght400_GRAD0_opsz48 1">
<path id="Vector" d="M12.0361 17.4167C13.2444 17.4167 14.2569 17.0083 15.0736 16.1917C15.8903 15.375 16.2986 14.3625 16.2986 13.1542C16.2986 11.9458 15.8903 10.9375 15.0736 10.1292C14.2569 9.32082 13.2444 8.91665 12.0361 8.91665C10.8278 8.91665 9.81942 9.32082 9.01108 10.1292C8.20275 10.9375 7.79858 11.9458 7.79858 13.1542C7.79858 14.3625 8.20275 15.375 9.01108 16.1917C9.81942 17.0083 10.8278 17.4167 12.0361 17.4167ZM12.0361 15.9167C11.2444 15.9167 10.5903 15.6542 10.0736 15.1292C9.55692 14.6042 9.29858 13.9458 9.29858 13.1542C9.29858 12.3625 9.55692 11.7083 10.0736 11.1917C10.5903 10.675 11.2444 10.4167 12.0361 10.4167C12.8278 10.4167 13.4861 10.675 14.0111 11.1917C14.5361 11.7083 14.7986 12.3625 14.7986 13.1542C14.7986 13.9458 14.5361 14.6042 14.0111 15.1292C13.4861 15.6542 12.8278 15.9167 12.0361 15.9167ZM3.54858 21.0667C3.14858 21.0667 2.79858 20.9167 2.49858 20.6167C2.19858 20.3167 2.04858 19.9667 2.04858 19.5667V6.74165C2.04858 6.35832 2.19858 6.01248 2.49858 5.70415C2.79858 5.39582 3.14858 5.24165 3.54858 5.24165H7.22358L9.04858 3.06665H15.0486L16.8736 5.24165H20.5486C20.9319 5.24165 21.2778 5.39582 21.5861 5.70415C21.8944 6.01248 22.0486 6.35832 22.0486 6.74165V19.5667C22.0486 19.9667 21.8944 20.3167 21.5861 20.6167C21.2778 20.9167 20.9319 21.0667 20.5486 21.0667H3.54858ZM20.5486 19.5667V6.74165H16.1736L14.3486 4.56665H9.74858L7.92358 6.74165H3.54858V19.5667H20.5486Z" fill="black"/>
</g>
</svg>
