<svg width="145" height="20" viewBox="0 0 145 20" fill="none" xmlns="http://www.w3.org/2000/svg">
<path id="Line 2" d="M144.16 11.625C144.46 11.1613 144.328 10.5422 143.864 10.2422L136.307 5.3542C135.843 5.05424 135.224 5.18701 134.924 5.65074C134.624 6.11447 134.757 6.73356 135.221 7.03351L141.938 11.3784L137.593 18.0957C137.293 18.5594 137.426 19.1785 137.89 19.4785C138.353 19.7784 138.972 19.6457 139.272 19.1819L144.16 11.625ZM70.2331 18.4396L70.3083 17.4424L70.2331 18.4396ZM0.882812 1C0.535707 1.93783 0.535945 1.93791 0.53634 1.93806C0.536683 1.93819 0.537236 1.93839 0.53792 1.93864C0.539289 1.93915 0.541286 1.93989 0.543909 1.94086C0.549155 1.9428 0.556904 1.94566 0.567131 1.94942C0.587584 1.95696 0.617946 1.96814 0.658007 1.98284C0.738128 2.01224 0.857047 2.05574 1.01309 2.11249C1.32517 2.22597 1.78574 2.3924 2.3814 2.6048C3.5727 3.0296 5.30447 3.63832 7.46938 4.37516C11.7988 5.8487 17.8626 7.83534 24.8017 9.8882C38.6606 13.9882 56.083 18.3743 70.1578 19.4368L70.3083 17.4424C56.4564 16.3968 39.2036 12.0632 25.3691 7.97036C18.4615 5.92683 12.424 3.94883 8.11379 2.48182C5.9589 1.74839 4.23628 1.14287 3.05314 0.720986C2.46158 0.510048 2.00493 0.345031 1.69658 0.232903C1.54241 0.17684 1.42532 0.134 1.34698 0.105254C1.30781 0.0908816 1.27833 0.0800326 1.25875 0.0728162C1.24896 0.069208 1.24165 0.066508 1.23683 0.0647298C1.23443 0.0638406 1.23264 0.063182 1.23149 0.0627555C1.23091 0.0625422 1.23052 0.0623969 1.23023 0.06229C1.23 0.0622029 1.22992 0.0621741 0.882812 1ZM70.1578 19.4368C84.6139 20.528 102.976 18.6744 117.675 16.5625C125.035 15.5051 131.496 14.3799 136.117 13.5191C138.428 13.0886 140.28 12.7241 141.554 12.4671C142.192 12.3386 142.685 12.2369 143.019 12.1673C143.186 12.1325 143.313 12.1056 143.399 12.0875C143.442 12.0784 143.475 12.0715 143.497 12.0668C143.508 12.0645 143.516 12.0627 143.522 12.0615C143.524 12.0609 143.527 12.0605 143.528 12.0602C143.529 12.06 143.529 12.0599 143.53 12.0598C143.53 12.0597 143.53 12.0596 143.321 11.0819C143.111 10.1041 143.111 10.1041 143.111 10.1042C143.11 10.1042 143.11 10.1043 143.109 10.1045C143.108 10.1047 143.106 10.1051 143.104 10.1057C143.098 10.1068 143.091 10.1085 143.08 10.1107C143.059 10.1152 143.028 10.1219 142.986 10.1308C142.902 10.1485 142.776 10.1749 142.611 10.2093C142.281 10.2781 141.792 10.3789 141.159 10.5066C139.893 10.7619 138.051 11.1244 135.751 11.5529C131.15 12.4099 124.717 13.5302 117.391 14.5828C102.717 16.6911 84.5354 18.5164 70.3083 17.4424L70.1578 19.4368Z" fill="white"/>
</svg>
