<svg width="212" height="106" viewBox="0 0 212 106" fill="none" xmlns="http://www.w3.org/2000/svg">
<path id="Line 3" d="M211.48 99.2421C211.875 98.8563 211.883 98.2232 211.497 97.828L205.211 91.3869C204.825 90.9917 204.192 90.9839 203.797 91.3697C203.402 91.7554 203.394 92.3885 203.78 92.7838L209.367 98.5092L203.642 104.097C203.247 104.482 203.239 105.116 203.625 105.511C204.01 105.906 204.643 105.914 205.039 105.528L211.48 99.2421ZM94.1901 77.8527L93.7663 78.7585L94.1901 77.8527ZM0.789062 1C0.0484931 1.67198 0.0487665 1.67228 0.0492389 1.6728C0.0496619 1.67327 0.0503335 1.67401 0.0511787 1.67494C0.0528693 1.6768 0.055354 1.67953 0.0586291 1.68314C0.0651792 1.69034 0.0748906 1.70102 0.0877332 1.71512C0.113418 1.74333 0.151628 1.78524 0.202121 1.84048C0.303106 1.95097 0.453224 2.11481 0.650539 2.32907C1.04517 2.75758 1.6286 3.38778 2.38534 4.19623C3.89881 5.81311 6.10568 8.14314 8.88206 10.9988C14.4344 16.7096 22.2667 24.525 31.3875 32.9437C49.6044 49.7584 73.0508 69.0649 93.7663 78.7585L94.6139 76.947C74.1992 67.3941 50.9451 48.2742 32.744 31.4741C23.6559 23.0855 15.8498 15.2964 10.316 9.60461C7.54936 6.75895 5.35124 4.43813 3.84548 2.82948C3.09261 2.02517 2.51286 1.39895 2.12172 0.974218C1.92615 0.761856 1.77774 0.599873 1.67841 0.491196C1.62874 0.436858 1.59135 0.395847 1.56648 0.368529C1.55404 0.354869 1.54473 0.344634 1.53858 0.337867C1.5355 0.334484 1.53322 0.331968 1.53172 0.330325C1.53098 0.329503 1.53046 0.328927 1.53008 0.328515C1.52976 0.328158 1.52963 0.32802 0.789062 1ZM93.7663 78.7585C115.044 88.7152 144.329 93.8966 168.215 96.5961C180.173 97.9476 190.808 98.68 198.453 99.0746C202.276 99.2719 205.352 99.3848 207.474 99.4484C208.535 99.4802 209.358 99.4997 209.915 99.5112C210.194 99.5169 210.407 99.5207 210.55 99.5231C210.622 99.5242 210.676 99.525 210.713 99.5256C210.731 99.5258 210.745 99.526 210.755 99.5261C210.759 99.5262 210.763 99.5262 210.765 99.5263C210.766 99.5263 210.767 99.5263 210.768 99.5263C210.769 99.5263 210.769 99.5263 210.781 98.5264C210.793 97.5265 210.793 97.5265 210.793 97.5265C210.792 97.5264 210.792 97.5264 210.791 97.5264C210.789 97.5264 210.785 97.5264 210.781 97.5263C210.772 97.5262 210.759 97.526 210.741 97.5258C210.706 97.5253 210.653 97.5245 210.583 97.5233C210.443 97.521 210.233 97.5173 209.957 97.5116C209.405 97.5002 208.589 97.4809 207.534 97.4493C205.425 97.3861 202.363 97.2738 198.556 97.0773C190.941 96.6843 180.348 95.9547 168.44 94.6088C144.591 91.9134 115.58 86.7579 94.6139 76.947L93.7663 78.7585Z" fill="white"/>
</svg>
