<svg width="13" height="13" viewBox="0 0 13 13" fill="none" xmlns="http://www.w3.org/2000/svg">
<g id="ph:heart-thin">
<path id="Vector" d="M9.03906 1.82812C7.95031 1.82812 7.01188 2.34559 6.5 3.20277C5.98812 2.34559 5.04969 1.82812 3.96094 1.82812C3.18008 1.82907 2.43148 2.13968 1.87933 2.69183C1.32718 3.24398 1.01657 3.99258 1.01562 4.77344C1.01563 6.22527 1.92969 7.74262 3.72734 9.2823C4.55737 9.98862 5.45357 10.6132 6.40352 11.1475C6.43316 11.1635 6.46631 11.1719 6.5 11.1719C6.53369 11.1719 6.56684 11.1635 6.59648 11.1475C7.54643 10.6132 8.44263 9.98862 9.27266 9.2823C11.0703 7.74262 11.9844 6.22527 11.9844 4.77344C11.9834 3.99258 11.6728 3.24398 11.1207 2.69183C10.5685 2.13968 9.81992 1.82907 9.03906 1.82812ZM6.5 10.7362C5.78906 10.332 1.42188 7.7223 1.42188 4.77344C1.42268 4.10028 1.69045 3.45493 2.16644 2.97894C2.64243 2.50295 3.28778 2.23518 3.96094 2.23438C5.03293 2.23438 5.93379 2.80871 6.31211 3.73293C6.32741 3.77019 6.35345 3.80205 6.3869 3.82448C6.42036 3.8469 6.45972 3.85887 6.5 3.85887C6.54028 3.85887 6.57964 3.8469 6.6131 3.82448C6.64655 3.80205 6.67259 3.77019 6.68789 3.73293C7.06621 2.80871 7.96707 2.23438 9.03906 2.23438C9.71222 2.23518 10.3576 2.50295 10.8336 2.97894C11.3096 3.45493 11.5773 4.10028 11.5781 4.77344C11.5781 7.71875 7.21094 10.332 6.5 10.7362Z" fill="#8F9396"/>
</g>
</svg>
