<svg width="107" height="108" viewBox="0 0 107 108" fill="none" xmlns="http://www.w3.org/2000/svg">
<g id="Group 789">
<path id="Vector" d="M107 54.3927C107 64.9641 103.863 75.2981 97.9865 84.0879C92.1098 92.8776 83.7571 99.7284 73.9846 103.774C64.2121 107.819 53.4586 108.878 43.0842 106.816C32.7097 104.753 23.1802 99.6626 15.7006 92.1875C8.22106 84.7124 3.1274 75.1885 1.06379 64.8203C-0.999814 54.452 0.0593095 43.705 4.10722 33.9384C8.15513 24.1717 15.01 15.824 23.8051 9.95084C32.6001 4.07769 42.9403 0.94291 53.518 0.94291C60.5501 0.911632 67.5187 2.27282 74.0215 4.94785C80.5244 7.62287 86.4326 11.5588 91.4051 16.5283C96.3776 21.4978 100.316 27.4025 102.992 33.9014C105.669 40.4004 107.031 47.3648 107 54.3927Z" fill="#F2F2F2"/>
<path id="Vector_2" d="M75.3913 41.6038L75.1267 42.0805C77.4821 36.2791 75.3403 29.1304 71.1384 24.7559C66.9368 20.3815 61.0955 18.3816 55.3438 17.5882C51.074 16.9992 46.642 17.0163 42.5821 18.5793C36.7028 20.8428 32.2109 26.0828 28.4605 31.5337C26.745 34.0269 25.0584 36.8693 25.2293 39.9855C25.3879 42.8773 27.1055 45.3314 28.512 47.7849C29.9188 50.2384 31.0934 53.2824 30.0839 55.9602C29.4823 57.556 28.2109 58.7052 27.1792 60.0106C26.1476 61.316 25.299 63.0805 25.7973 64.7183C26.0186 65.345 26.3987 65.9035 26.9005 66.3394C27.4024 66.7753 28.0088 67.0736 28.6605 67.2052C29.9077 67.4957 31.2015 67.3059 32.4645 67.1151L65.2493 62.1648C67.4771 61.8284 69.5904 60.9586 71.4091 59.6295C73.2278 58.3004 74.698 56.5515 75.6942 54.5318C76.6904 52.5122 77.1831 50.2817 77.1304 48.0307C77.0777 45.7796 76.481 43.5746 75.3913 41.6038Z" fill="#2F2E41"/>
<path id="Vector_3" d="M66.8273 48.4829C68.2453 39.7498 62.3111 31.5214 53.5728 30.1042C44.8345 28.687 36.6011 34.6178 35.1831 43.3509C33.765 52.0839 39.6993 60.3124 48.4376 61.7296C57.1759 63.1467 65.4093 57.216 66.8273 48.4829Z" fill="#FFB9B9"/>
<path id="Vector_4" d="M93.6764 89.6835C84.4108 100.22 71.371 106.692 57.3718 107.704C43.3726 108.715 29.537 104.183 18.8518 95.0879L23.4391 82.2955C24.4757 80.0234 26.1116 78.0762 28.1714 76.6626C30.2311 75.249 32.6371 74.4224 35.1311 74.2715L38.0494 74.0924L45.0081 68.0944C45.0081 68.0944 63.7579 67.4253 63.4797 67.1049L74.837 73.9322L74.8276 73.8851L79.2923 74.1584C81.7865 74.3087 84.1927 75.135 86.2526 76.5487C88.3125 77.9624 89.9483 79.91 90.9844 82.1824L93.6764 89.6835Z" fill="#ED627D"/>
<path id="Vector_5" d="M66.2092 31.0489C65.7954 28.8613 63.5629 27.8608 61.6502 27.3759C56.102 25.9612 50.3305 25.6445 44.6607 26.4436C40.5275 27.0326 36.2962 28.3316 33.2972 31.5558C30.879 34.2707 29.5088 37.7584 29.4328 41.3924C29.3105 43.5652 29.7963 45.7291 30.8357 47.6415C31.915 49.4671 33.7544 50.7912 35.6534 50.7447L35.8457 51.4132C43.8934 50.2926 51.369 45.2882 56.0772 37.8698C55.1936 41.0232 53.4351 43.8623 51.005 46.0589C56.4383 43.8862 61.1612 40.2485 64.6475 35.551C65.5996 34.2882 66.5239 32.7132 66.2092 31.0489Z" fill="#2F2E41"/>
</g>
</svg>
