<svg width="108" height="108" viewBox="0 0 108 108" fill="none" xmlns="http://www.w3.org/2000/svg">
<g id="Group 785">
<path id="Vector" d="M53.9637 106.9C83.5009 106.9 107.446 82.9693 107.446 53.4498C107.446 23.9303 83.5009 0 53.9637 0C24.4266 0 0.481934 23.9303 0.481934 53.4498C0.481934 82.9693 24.4266 106.9 53.9637 106.9Z" fill="#F2F2F2"/>
<path id="Vector_2" d="M32.137 32.5432C31.4029 36.4845 30.1993 40.3239 28.5518 43.9792C19.1175 63.9253 45.9845 57.4239 55.5858 57.4239C66.0835 57.4239 76.1276 62.9407 74.5936 38.4275C73.9383 27.9566 66.0835 19.4312 55.5858 19.4312C46.6191 19.4312 34.0119 23.4143 32.137 32.5432Z" fill="#2F2E41"/>
<path id="Vector_3" d="M54.0131 57.4191C62.5436 57.4191 69.459 50.5079 69.459 41.9825C69.459 33.457 62.5436 26.5458 54.0131 26.5458C45.4825 26.5458 38.5671 33.457 38.5671 41.9825C38.5671 50.5079 45.4825 57.4191 54.0131 57.4191Z" fill="#FFB6B6"/>
<path id="Vector_4" d="M43.5236 26.247C46.2302 24.5979 49.3304 23.7058 52.5 23.6641C55.6697 23.6223 58.7924 24.4324 61.5415 26.0095C64.2907 27.5867 66.5654 29.8731 68.1278 32.6296C69.6902 35.3861 70.4828 38.5114 70.4229 41.6789C62.5524 43.6537 54.284 45.165 45.8907 42.1512L43.9085 37.303L42.7399 42.1548C40.1839 43.1989 37.6212 44.0824 35.0585 42.1448C34.9538 38.9862 35.6806 35.8556 37.1661 33.0658C38.6516 30.2759 40.8438 27.9246 43.5236 26.247Z" fill="#2F2E41"/>
<path id="Vector_5" d="M95.5482 88.9906C86.2827 99.5271 73.2428 106 59.2436 107.011C45.2444 108.022 31.4088 103.49 20.7236 94.395L25.3109 81.6026C26.3475 79.3306 27.9834 77.3833 30.0432 75.9697C32.103 74.5562 34.5089 73.7296 37.003 73.5786L39.9213 73.3995L46.8799 67.4015C46.8799 67.4015 65.6297 66.7324 65.3515 66.412L76.7089 73.2393L76.6994 73.1922L81.1641 73.4655C83.6584 73.6158 86.0646 74.4422 88.1244 75.8558C90.1843 77.2695 91.8201 79.2171 92.8562 81.4896L95.5482 88.9906Z" fill="#ED627D"/>
</g>
</svg>
