<svg width="107" height="108" viewBox="0 0 107 108" fill="none" xmlns="http://www.w3.org/2000/svg">
<g id="Group 786">
<path id="Vector" d="M53.4818 107.804C83.019 107.804 106.964 83.8739 106.964 54.3544C106.964 24.8348 83.019 0.904541 53.4818 0.904541C23.9446 0.904541 0 24.8348 0 54.3544C0 83.8739 23.9446 107.804 53.4818 107.804Z" fill="#F2F2F2"/>
<path id="Vector_2" d="M53.9596 56.5827C65.7381 56.5827 75.2865 47.0401 75.2865 35.2686C75.2865 23.4972 65.7381 13.9546 53.9596 13.9546C42.1812 13.9546 32.6328 23.4972 32.6328 35.2686C32.6328 47.0401 42.1812 56.5827 53.9596 56.5827Z" fill="#2F2E41"/>
<path id="Vector_3" d="M53.9684 59.3827C64.4907 59.3827 73.0206 50.8578 73.0206 40.3419C73.0206 29.826 64.4907 21.3011 53.9684 21.3011C43.4462 21.3011 34.9163 29.826 34.9163 40.3419C34.9163 50.8578 43.4462 59.3827 53.9684 59.3827Z" fill="#FFB8B8"/>
<path id="Vector_4" d="M93.4588 89.4752C84.1933 100.012 71.1534 106.484 57.1542 107.495C43.1551 108.506 29.3195 103.975 18.6343 94.8796L23.2215 82.0873C24.2582 79.8152 25.8941 77.8679 27.9539 76.4544C30.0136 75.0408 32.4195 74.2142 34.9136 74.0632L37.8319 73.8842L44.7906 67.8861C44.7906 67.8861 63.5403 67.2171 63.2622 66.8967L74.6195 73.724L74.6101 73.6768L79.0748 73.9501C81.569 74.1005 83.9752 74.9268 86.0351 76.3405C88.0949 77.7541 89.7307 79.7017 90.7668 81.9742L93.4588 89.4752Z" fill="#299CAA"/>
<path id="Vector_5" d="M74.0687 33.6642C74.2024 32.2426 74.2637 30.8152 74.2523 29.3873C74.3301 26.5635 73.8124 23.7549 72.7329 21.1442C71.4051 18.2535 69.0378 15.9678 66.1012 14.7414C63.1906 13.5682 59.9378 13.571 57.0292 14.7494C54.4032 13.0912 51.4855 11.7768 48.4128 11.6139C45.34 11.4511 42.0912 12.5904 40.1976 15.0983C39.7748 15.7603 39.2945 16.3839 38.7624 16.9618C37.2402 18.3705 34.927 18.1673 32.9039 17.8793C33.8113 18.6566 34.719 19.4338 35.6269 20.2111C34.5284 20.4979 33.4299 20.7847 32.3313 21.0715C33.6132 21.8484 34.895 22.6255 36.1767 23.4025C32.4554 25.6348 30.764 30.507 31.2108 34.9321C31.6335 39.1216 33.6573 42.9526 36.0767 46.3577C37.0417 44.3223 36.8338 41.8867 36.8179 39.5943C36.809 38.8507 36.8544 38.1075 36.9537 37.3705C45.13 39.3293 53.6732 40.5864 62.337 37.4754L64.0756 33.2227C64.3196 33.2478 64.5637 33.2713 64.8076 33.2972L65.8149 37.4794C68.0986 38.4122 70.3871 39.2276 72.6765 38.3708C72.7879 39.0168 72.855 39.676 72.9065 40.3097C73.103 39.5517 73.2735 38.7882 73.4272 38.0216C73.7297 37.8594 74.0195 37.6744 74.294 37.4683C74.3493 36.1959 74.2738 34.9212 74.0687 33.6642Z" fill="#2F2E41"/>
</g>
</svg>
