<svg width="107" height="109" viewBox="0 0 107 109" fill="none" xmlns="http://www.w3.org/2000/svg">
<g id="Group 788">
<path id="Vector" d="M53.5179 107.804C83.0551 107.804 107 83.8739 107 54.3544C107 24.8348 83.0551 0.904541 53.5179 0.904541C23.9808 0.904541 0.0361328 24.8348 0.0361328 54.3544C0.0361328 83.8739 23.9808 107.804 53.5179 107.804Z" fill="#F2F2F2"/>
<path id="Vector_2" d="M52.0414 60.9756C61.47 60.9756 69.1134 53.3368 69.1134 43.9139C69.1134 34.4909 61.47 26.8521 52.0414 26.8521C42.6129 26.8521 34.9695 34.4909 34.9695 43.9139C34.9695 53.3368 42.6129 60.9756 52.0414 60.9756Z" fill="#FFB6B6"/>
<path id="Vector_3" d="M93.641 90.1164C84.3754 100.653 71.3356 107.125 57.3364 108.136C43.3372 109.148 29.5016 104.616 18.8164 95.5207L23.4037 82.7284C24.4403 80.4563 26.0762 78.5091 28.136 77.0955C30.1957 75.6819 32.6017 74.8553 35.0957 74.7043L38.0141 74.5253L44.9727 68.5272C44.9727 68.5272 63.7225 67.8582 63.4443 67.5378L74.8016 74.3651L74.7922 74.3179L79.2569 74.5912C81.7511 74.7416 84.1573 75.5679 86.2172 76.9816C88.2771 78.3952 89.9129 80.3428 90.949 82.6153L93.641 90.1164Z" fill="#78BDC6"/>
<path id="Vector_4" d="M70.0467 33.3325C68.604 28.1721 65.3264 23.7153 60.8289 20.7987C57.2447 18.5076 52.7723 17.3379 48.7118 18.5496C44.6513 19.7612 41.2895 23.7437 41.5553 28.0466C40.0896 27.5481 38.4233 28.2113 37.3504 29.3443C36.2775 30.4774 35.7006 32.0015 35.2874 33.5187C33.9844 38.343 34.0708 43.437 35.5365 48.2145L35.4559 48.9002C37.4369 48.5727 38.9395 46.874 39.8739 45.0641C40.8082 43.2542 41.3459 41.2463 42.3586 39.4807C43.3714 37.7152 45.0531 36.1402 47.0593 36.0851L46.8825 39.1498C48.6085 38.2611 50.3346 37.3724 52.0606 36.4836C51.65 37.4651 51.2394 38.4467 50.8289 39.4282C52.3362 38.7985 53.8436 38.1689 55.351 37.5392C55.1825 38.483 55.014 39.4269 54.8455 40.3707C56.3404 36.97 60.9636 35.4762 64.1085 37.3775C65.935 38.4817 67.1333 40.4495 67.7636 42.5161C68.3939 44.5827 68.5186 46.7688 68.6389 48.9295C70.9681 44.0684 71.4679 38.5317 70.0467 33.3325Z" fill="#2F2E41"/>
</g>
</svg>
