<svg width="107" height="109" viewBox="0 0 107 109" fill="none" xmlns="http://www.w3.org/2000/svg">
<g id="Group 787">
<path id="Vector" d="M53.4818 107.716C83.019 107.716 106.964 83.7856 106.964 54.2661C106.964 24.7466 83.019 0.816284 53.4818 0.816284C23.9446 0.816284 0 24.7466 0 54.2661C0 83.7856 23.9446 107.716 53.4818 107.716Z" fill="#F2F2F2"/>
<path id="Vector_2" d="M38.7961 34.21C42.9662 34.21 46.3468 30.8315 46.3468 26.6638C46.3468 22.4962 42.9662 19.1176 38.7961 19.1176C34.6259 19.1176 31.2454 22.4962 31.2454 26.6638C31.2454 30.8315 34.6259 34.21 38.7961 34.21Z" fill="#2F2E41"/>
<path id="Vector_3" d="M50.8768 62.8856C61.4412 62.8856 70.0053 54.3266 70.0053 43.7686C70.0053 33.2105 61.4412 24.6515 50.8768 24.6515C40.3124 24.6515 31.7483 33.2105 31.7483 43.7686C31.7483 54.3266 40.3124 62.8856 50.8768 62.8856Z" fill="#2F2E41"/>
<path id="Vector_4" d="M52.4598 62.8808C61.0446 62.8808 68.0039 55.9257 68.0039 47.3461C68.0039 38.7664 61.0446 31.8113 52.4598 31.8113C43.8751 31.8113 36.9158 38.7664 36.9158 47.3461C36.9158 55.9257 43.8751 62.8808 52.4598 62.8808Z" fill="#9E616A"/>
<path id="Vector_5" d="M63.0156 31.5105C60.2918 29.851 57.1719 28.9533 53.9821 28.9113C50.7923 28.8692 47.6498 29.6844 44.8832 31.2716C42.1166 32.8588 39.8274 35.1597 38.2551 37.9337C36.6828 40.7077 35.885 43.853 35.9453 47.0405C43.8658 49.0279 52.1868 50.5489 60.6335 47.5159L62.6282 42.6369L63.8042 47.5195C66.3765 48.5703 68.9554 49.4593 71.5344 47.5094C71.6397 44.3308 70.9083 41.1802 69.4134 38.3727C67.9185 35.5651 65.7124 33.1989 63.0156 31.5105Z" fill="#2F2E41"/>
<path id="Vector_6" d="M31.7657 6.17861C26.5444 3.786 19.9931 4.9087 15.6455 8.66043C11.298 12.4122 9.23112 18.5182 10.0704 24.1971C10.9266 29.9905 14.4507 34.9794 17.6992 39.8534C20.9476 44.7273 24.1212 50.0681 24.1175 55.9244C24.1149 60.1423 22.4387 64.1871 19.4564 67.1717C16.4741 70.1563 12.4292 71.837 8.20874 71.8454C13.1622 73.9766 18.3322 76.1496 23.7192 75.8969C29.1063 75.6443 34.7527 72.1832 35.6314 66.8656C36.2646 63.0339 34.3836 59.2977 32.8148 55.7447C30.2595 49.9553 28.4125 43.879 27.3139 37.6474C26.7899 34.6731 26.4488 31.5464 27.419 28.6863C28.1916 26.5669 29.6252 24.7518 31.5085 23.5085C33.3917 22.2652 35.6249 21.6596 37.8786 21.7811L39.6586 20.1807C40.4503 14.4949 36.987 8.57119 31.7657 6.17861Z" fill="#2F2E41"/>
<path id="Vector_7" d="M93.7228 90.0282C84.4572 100.565 71.4174 107.037 57.4182 108.048C43.419 109.059 29.5834 104.528 18.8982 95.4325L23.4854 82.6402C24.5221 80.3681 26.158 78.4209 28.2178 77.0073C30.2775 75.5937 32.6835 74.7671 35.1775 74.6161L38.0958 74.4371L45.0545 68.4391C45.0545 68.4391 63.8043 67.77 63.5261 67.4496L74.8834 74.2769L74.874 74.2298L79.3387 74.503C81.8329 74.6534 84.2391 75.4797 86.299 76.8934C88.3589 78.307 89.9946 80.2546 91.0308 82.5271L93.7228 90.0282Z" fill="#858585" fill-opacity="0.8"/>
</g>
</svg>
