<svg width="108" height="108" viewBox="0 0 108 108" fill="none" xmlns="http://www.w3.org/2000/svg">
<g id="Group 784">
<path id="Vector" d="M54.0004 106.9C83.5376 106.9 107.482 82.9693 107.482 53.4498C107.482 23.9303 83.5376 0 54.0004 0C24.4632 0 0.518555 23.9303 0.518555 53.4498C0.518555 82.9693 24.4632 106.9 54.0004 106.9Z" fill="#F2F2F2"/>
<path id="Vector_2" d="M56.1797 58.9021C65.8113 58.9021 73.6192 51.0988 73.6192 41.473C73.6192 31.8473 65.8113 24.044 56.1797 24.044C46.5481 24.044 38.7402 31.8473 38.7402 41.473C38.7402 51.0988 46.5481 58.9021 56.1797 58.9021Z" fill="#FFB8B8"/>
<path id="bf427902-b9bf-4946-b5d7-5c1c7e04535e" d="M71.5349 29.959C71.5349 29.959 76.0755 21.2839 66.086 20.4953C66.086 20.4953 57.5698 12.7746 48.8895 19.0838C48.8895 19.0838 44.1548 19.0838 41.5657 24.4385C41.5657 24.4385 37.8419 23.027 37.0235 26.8044C37.0235 26.8044 34.2987 34.6909 37.0235 41.7887C39.7484 48.8866 40.6535 49.6752 40.6535 49.6752C40.6535 49.6752 38.7416 40.8672 49.6402 40.0786C60.5388 39.2899 70.5372 32.4665 71.4455 41.1416C72.3538 49.8167 73.3522 45.8978 73.3522 45.8978C73.3522 45.8978 81.9788 33.508 71.5349 29.959Z" fill="#2F2E41"/>
<path id="Vector_3" d="M93.9254 88.9906C84.6599 99.5271 71.62 106 57.6208 107.011C43.6216 108.022 29.786 103.49 19.1008 94.395L23.6881 81.6026C24.7247 79.3306 26.3606 77.3833 28.4204 75.9697C30.4802 74.5562 32.8861 73.7296 35.3802 73.5786L38.2985 73.3995L45.2571 67.4015C45.2571 67.4015 64.0069 66.7324 63.7287 66.412L75.0861 73.2393L75.0766 73.1922L79.5413 73.4655C82.0356 73.6158 84.4418 74.4422 86.5016 75.8558C88.5615 77.2695 90.1973 79.2171 91.2334 81.4896L93.9254 88.9906Z" fill="black" fill-opacity="0.8"/>
</g>
</svg>
