<svg width="107" height="108" viewBox="0 0 107 108" fill="none" xmlns="http://www.w3.org/2000/svg">
<g id="Group 790">
<path id="Vector" d="M53.4818 107.842C83.019 107.842 106.964 83.9119 106.964 54.3924C106.964 24.8729 83.019 0.942627 53.4818 0.942627C23.9446 0.942627 0 24.8729 0 54.3924C0 83.9119 23.9446 107.842 53.4818 107.842Z" fill="#F2F2F2"/>
<path id="ab6171fa-7d69-4734-b81c-8dff60f9761b" d="M52.3044 59.9366C61.2653 59.9366 68.5295 52.6768 68.5295 43.7213C68.5295 34.7658 61.2653 27.5059 52.3044 27.5059C43.3436 27.5059 36.0793 34.7658 36.0793 43.7213C36.0793 52.6768 43.3436 59.9366 52.3044 59.9366Z" fill="#9E616A"/>
<path id="Vector_2" d="M92.9164 89.6829C83.6508 100.219 70.611 106.692 56.6118 107.703C42.6126 108.714 28.777 104.183 18.0918 95.0873L22.679 82.295C23.7157 80.0229 25.3516 78.0756 27.4114 76.6621C29.4711 75.2485 31.877 74.4219 34.3711 74.2709L37.2894 74.0919L44.2481 68.0938C44.2481 68.0938 62.9978 67.4248 62.7197 67.1044L74.077 73.9317L74.0676 73.8845L78.5323 74.1578C81.0265 74.3082 83.4327 75.1345 85.4926 76.5482C87.5525 77.9618 89.1882 79.9094 90.2244 82.1819L92.9164 89.6829Z" fill="#F5C75A"/>
<path id="Vector_3" d="M37.5611 51.2172C37.5292 51.1288 37.5003 51.0393 37.4688 50.9507C37.4065 51.0055 37.3468 51.0621 37.2793 51.1134L37.5611 51.2172Z" fill="#2F2E41"/>
<path id="Vector_4" d="M71.7401 37.9525C71.6569 36.3072 71.2257 34.6982 70.4749 33.2315C69.7241 31.7649 68.6708 30.4739 67.3844 29.4437C66.4388 28.6963 65.3449 28.0652 64.7189 27.0356C64.3619 26.3067 64.0592 25.5524 63.8134 24.7789C62.5679 21.816 59.0181 20.2413 55.8339 20.6899C52.6498 21.1386 49.8941 23.2792 48.038 25.9036C47.1234 25.4656 46.1025 25.2988 45.096 25.4227C44.0895 25.5467 43.1397 25.9563 42.3589 26.6031C41.5781 27.2498 40.9992 28.1066 40.6905 29.072C40.3819 30.0375 40.3566 31.071 40.6175 32.0504C38.9685 30.7228 36.3013 31.7848 35.2719 33.6341C34.2427 35.4834 34.406 37.7463 34.712 39.8402C35.2664 43.6247 36.1899 47.3459 37.4694 50.9506C39.0749 49.5376 38.9763 46.9644 38.7801 44.7892C38.5762 42.5293 38.6983 39.7703 40.6756 38.6551C42.586 37.5778 44.9047 38.7605 47.011 39.3723C48.6764 39.8437 50.4243 39.9486 52.1341 39.6798C53.844 39.411 55.4752 38.7749 56.9154 37.8154C58.0127 37.0734 58.9895 36.1441 60.1723 35.5477C61.3552 34.9514 62.8604 34.7443 63.9616 35.4803C64.9673 36.1525 65.3763 37.4062 65.7185 38.566C66.5295 41.3146 67.3406 44.0632 68.1516 46.8119C69.3421 45.6724 70.2775 44.2937 70.8961 42.7667C71.5147 41.2396 71.8023 39.5988 71.7401 37.9525Z" fill="#2F2E41"/>
</g>
</svg>
