<svg width="108" height="107" viewBox="0 0 108 107" fill="none" xmlns="http://www.w3.org/2000/svg">
<g id="Group 783">
<path id="Vector" d="M107.518 53.5446C107.499 64.116 104.345 74.4444 98.4523 83.2237C92.56 92.0031 84.1952 98.839 74.4155 102.867C64.6358 106.895 53.8805 107.935 43.5097 105.854C33.139 103.773 23.6185 98.6658 16.1522 91.1775C8.68589 83.6891 3.60914 74.1563 1.56393 63.7844C-0.481277 53.4125 0.596908 42.6674 4.66214 32.9079C8.72737 23.1484 15.5971 14.8129 24.4025 8.95534C33.208 3.09779 43.5537 -0.0186583 54.1313 8.40427e-05C61.1598 -0.00569009 68.1202 1.37672 74.6123 4.06788C81.1045 6.75904 87.0006 10.7059 91.9616 15.6816C96.9227 20.6573 100.851 26.5638 103.521 33.0616C106.19 39.5594 107.549 46.5204 107.518 53.5446Z" fill="#F2F2F2"/>
<path id="Vector_2" d="M29.2483 36.0626C31.4597 29.019 36.4887 22.5589 43.4435 20.1778C50.3988 17.7967 60.5831 21.4239 65.8119 26.6319C75.3764 36.1584 77.7105 68.8853 71.1393 79.2274C69.8323 79.1582 65.3222 79.1071 63.9993 79.0576L62.1279 72.8241V78.9961C60.0204 78.931 57.8964 78.8861 55.7559 78.8613C48.5792 78.7723 41.7165 75.9061 36.6106 70.8651C31.5046 65.824 28.5532 59.0009 28.3766 51.8302C28.2054 44.9702 28.3768 38.8383 29.2483 36.0626Z" fill="#2F2E41"/>
<path id="Vector_3" d="M53.2434 59.4068C61.6613 59.4068 68.4854 52.5868 68.4854 44.1739C68.4854 35.7611 61.6613 28.9411 53.2434 28.9411C44.8255 28.9411 38.0015 35.7611 38.0015 44.1739C38.0015 52.5868 44.8255 59.4068 53.2434 59.4068Z" fill="#9E616A"/>
<path id="Vector_4" d="M40.0894 30.7958L57.639 22.0135C61.2269 23.6294 64.3169 26.1751 66.5886 29.3866C68.8604 32.5982 70.231 36.3587 70.5584 40.2781L70.9958 45.5146L63.6469 43.645L62.8418 36.9491L61.5938 43.1227L58.2023 42.2603L58.2346 31.8649L54.841 42.2529L42.7281 39.4716L40.0894 30.7958Z" fill="#2F2E41"/>
<path id="Vector_5" d="M93.7237 88.8207C84.4582 99.3572 71.4183 105.83 57.4191 106.841C43.4199 107.852 29.5844 103.321 18.8992 94.2251L23.4864 81.4327C24.5231 79.1606 26.159 77.2134 28.2187 75.7998C30.2785 74.3862 32.6844 73.5596 35.1785 73.4087L38.0968 73.2296L45.0555 67.2316C45.0555 67.2316 63.8052 66.5625 63.5271 66.2421L74.8844 73.0694L74.875 73.0223L79.3396 73.2956C81.8339 73.4459 84.2401 74.2723 86.3 75.6859C88.3598 77.0996 89.9956 79.0472 91.0317 81.3196L93.7237 88.8207Z" fill="#F5C75A"/>
</g>
</svg>
