<svg width="14" height="8" viewBox="0 0 14 8" fill="none" xmlns="http://www.w3.org/2000/svg">
<g clip-path="url(#clip0_53_12)">
<path fill-rule="evenodd" clip-rule="evenodd" d="M0.177824 0.999556C0.0704727 0.887881 0.0104361 0.738471 0.0104361 0.582948C0.0104361 0.427425 0.0704727 0.277992 0.177824 0.166318C0.230712 0.111519 0.293963 0.0679635 0.363826 0.0382222C0.433689 0.00848087 0.508774 -0.00683594 0.584608 -0.00683594C0.660443 -0.00683594 0.735482 0.00848087 0.805345 0.0382222C0.875207 0.0679635 0.938458 0.111519 0.991346 0.166318L7.11353 6.43578L13.0238 0.168227C13.0764 0.113635 13.1393 0.0702544 13.2089 0.0406206C13.2784 0.0109869 13.3531 -0.00429778 13.4286 -0.00429778C13.5041 -0.00429778 13.5789 0.0109869 13.6484 0.0406206C13.7179 0.0702544 13.7809 0.113635 13.8335 0.168227C13.9426 0.279 14.0038 0.428772 14.0038 0.584858C14.0038 0.740944 13.9426 0.890693 13.8335 1.00147L7.11353 8.00685L0.177824 0.999556Z" fill="white"/>
</g>
<defs>
<clipPath id="clip0_53_12">
<rect width="8" height="14" fill="white" transform="matrix(0 1 -1 0 14 0)"/>
</clipPath>
</defs>
</svg>
