<svg width="14" height="8" viewBox="0 0 14 8" fill="none" xmlns="http://www.w3.org/2000/svg">
<path fill-rule="evenodd" clip-rule="evenodd" d="M0.167468 1.00467C0.0600653 0.893189 0 0.744034 0 0.588777C0 0.433519 0.0600653 0.284341 0.167468 0.172858C0.220381 0.118153 0.283663 0.0746717 0.353559 0.0449812C0.423454 0.0152906 0.498575 0 0.574446 0C0.650316 0 0.72539 0.0152906 0.795287 0.0449812C0.865183 0.0746717 0.928464 0.118153 0.981378 0.172858L7.10647 6.43161L13.0195 0.174764C13.0722 0.120265 13.1351 0.0769586 13.2047 0.0473755C13.2743 0.0177924 13.3491 0.00253382 13.4246 0.00253382C13.5001 0.00253382 13.5749 0.0177924 13.6445 0.0473755C13.714 0.0769586 13.777 0.120265 13.8297 0.174764C13.9388 0.285347 14 0.434863 14 0.590683C14 0.746503 13.9388 0.895995 13.8297 1.00658L7.10647 8L0.167468 1.00467Z" fill="black"/>
</svg>
