<svg width="25" height="25" viewBox="0 0 25 25" fill="none" xmlns="http://www.w3.org/2000/svg">
<g id="schedule_FILL0_wght400_GRAD0_opsz48 1">
<path id="Vector" d="M15.7825 16.9863L16.9075 15.8613L12.9325 11.8613V6.83632H11.4325V12.4613L15.7825 16.9863ZM12.1075 22.1613C10.7409 22.1613 9.44921 21.8988 8.23254 21.3738C7.01588 20.8488 5.95338 20.1321 5.04504 19.2238C4.13671 18.3155 3.42004 17.253 2.89504 16.0363C2.37004 14.8196 2.10754 13.528 2.10754 12.1613C2.10754 10.7946 2.37004 9.50298 2.89504 8.28632C3.42004 7.06965 4.13671 6.00715 5.04504 5.09882C5.95338 4.19048 7.01588 3.47382 8.23254 2.94882C9.44921 2.42382 10.7409 2.16132 12.1075 2.16132C13.4742 2.16132 14.7659 2.42382 15.9825 2.94882C17.1992 3.47382 18.2617 4.19048 19.17 5.09882C20.0784 6.00715 20.795 7.06965 21.32 8.28632C21.845 9.50298 22.1075 10.7946 22.1075 12.1613C22.1075 13.528 21.845 14.8196 21.32 16.0363C20.795 17.253 20.0784 18.3155 19.17 19.2238C18.2617 20.1321 17.1992 20.8488 15.9825 21.3738C14.7659 21.8988 13.4742 22.1613 12.1075 22.1613ZM12.1075 20.6613C14.4409 20.6613 16.4409 19.828 18.1075 18.1613C19.7742 16.4946 20.6075 14.4946 20.6075 12.1613C20.6075 9.82798 19.7742 7.82798 18.1075 6.16132C16.4409 4.49465 14.4409 3.66132 12.1075 3.66132C9.77421 3.66132 7.77421 4.49465 6.10754 6.16132C4.44088 7.82798 3.60754 9.82798 3.60754 12.1613C3.60754 14.4946 4.44088 16.4946 6.10754 18.1613C7.77421 19.828 9.77421 20.6613 12.1075 20.6613Z" fill="black" fill-opacity="0.8"/>
</g>
</svg>
