<svg width="24" height="24" viewBox="0 0 24 24" fill="none" xmlns="http://www.w3.org/2000/svg">
<path d="M12 14C12.55 14 13.0208 13.8042 13.4125 13.4125C13.8042 13.0208 14 12.55 14 12C14 11.45 13.8042 10.9792 13.4125 10.5875C13.0208 10.1958 12.55 10 12 10C11.45 10 10.9792 10.1958 10.5875 10.5875C10.1958 10.9792 10 11.45 10 12C10 12.55 10.1958 13.0208 10.5875 13.4125C10.9792 13.8042 11.45 14 12 14ZM8 18H16V17.425C16 17.025 15.8917 16.6583 15.675 16.325C15.4583 15.9917 15.1583 15.7417 14.775 15.575C14.3417 15.3917 13.8958 15.25 13.4375 15.15C12.9792 15.05 12.5 15 12 15C11.5 15 11.0208 15.05 10.5625 15.15C10.1042 15.25 9.65833 15.3917 9.225 15.575C8.84167 15.7417 8.54167 15.9917 8.325 16.325C8.10833 16.6583 8 17.025 8 17.425V18ZM18.5 22H5.5C5.1 22 4.75 21.85 4.45 21.55C4.15 21.25 4 20.9 4 20.5V3.5C4 3.1 4.15 2.75 4.45 2.45C4.75 2.15 5.1 2 5.5 2H14.025L20 7.975V20.5C20 20.9 19.85 21.25 19.55 21.55C19.25 21.85 18.9 22 18.5 22ZM18.5 20.5V8.65L13.35 3.5H5.5V20.5H18.5Z" fill="white"/>
</svg>
