<svg width="25" height="25" viewBox="0 0 25 25" fill="none" xmlns="http://www.w3.org/2000/svg">
<g id="description_FILL0_wght400_GRAD0_opsz48 1">
<path id="Vector" d="M8.08254 17.9113H16.1325V16.4113H8.08254V17.9113ZM8.08254 13.6613H16.1325V12.1613H8.08254V13.6613ZM5.60754 22.1613C5.20754 22.1613 4.85754 22.0113 4.55754 21.7113C4.25754 21.4113 4.10754 21.0613 4.10754 20.6613V3.66132C4.10754 3.26132 4.25754 2.91132 4.55754 2.61132C4.85754 2.31132 5.20754 2.16132 5.60754 2.16132H14.6325L20.1075 7.63632V20.6613C20.1075 21.0613 19.9575 21.4113 19.6575 21.7113C19.3575 22.0113 19.0075 22.1613 18.6075 22.1613H5.60754ZM13.8825 8.31132V3.66132H5.60754V20.6613H18.6075V8.31132H13.8825Z" fill="black" fill-opacity="0.8"/>
</g>
</svg>
