<svg width="24" height="24" viewBox="0 0 24 24" fill="none" xmlns="http://www.w3.org/2000/svg">
<g id="fitness_center_FILL0_wght400_GRAD0_opsz48 1">
<path id="Vector" d="M13.75 21.9L12.7 20.85L16.25 17.3L6.69998 7.74998L3.14998 11.3L2.09998 10.25L3.49998 8.79998L2.09998 7.39998L4.22498 5.27498L3.17498 4.22498L4.22498 3.17498L5.29998 4.19998L7.39998 2.09998L8.79998 3.49998L10.25 2.09998L11.3 3.14998L7.74998 6.69998L17.3 16.25L20.85 12.7L21.9 13.75L20.5 15.2L21.9 16.6L19.75 18.75L20.8 19.8L19.75 20.85L18.7 19.8L16.6 21.9L15.2 20.5L13.75 21.9Z" fill="white"/>
</g>
</svg>
