<svg width="71" height="71" viewBox="0 0 71 71" fill="none" xmlns="http://www.w3.org/2000/svg">
<g id="local_drink">
<mask id="mask0_567_367" style="mask-type:alpha" maskUnits="userSpaceOnUse" x="0" y="0" width="71" height="71">
<rect id="Bounding box" width="70.1075" height="70.1075" fill="#D9D9D9"/>
</mask>
<g mask="url(#mask0_567_367)">
<path id="local_drink_2" d="M20.448 64.2652C18.8901 64.2652 17.5634 63.7784 16.468 62.8047C15.3725 61.831 14.7518 60.6138 14.6057 59.1532L8.76343 5.84229H61.3441L55.5018 59.1532C55.3557 60.6138 54.735 61.831 53.6396 62.8047C52.5441 63.7784 51.2174 64.2652 49.6595 64.2652H20.448ZM17.2348 29.2115L20.448 58.4229H49.6595L52.8728 29.2115H17.2348ZM16.5045 23.3692H53.603L54.7715 11.6846H15.336L16.5045 23.3692ZM35.0538 55.5018C37.3907 55.5018 39.4355 54.6985 41.1882 53.0919C42.9409 51.4852 43.8172 49.5134 43.8172 47.1765C43.8172 45.1804 43.0991 43.0139 41.6629 40.677C40.2266 38.3401 38.0236 35.4919 35.0538 32.1326C32.0839 35.4919 29.8809 38.3401 28.4447 40.677C27.0084 43.0139 26.2903 45.1804 26.2903 47.1765C26.2903 49.5134 27.1667 51.4852 28.9193 53.0919C30.672 54.6985 32.7168 55.5018 35.0538 55.5018ZM35.0538 49.6595C34.2261 49.6595 33.5323 49.3796 32.9724 48.8197C32.4126 48.2598 32.1326 47.566 32.1326 46.7384C32.1326 46.2028 32.4004 45.3752 32.9359 44.2554C33.4715 43.1356 34.1774 41.9185 35.0538 40.6039C35.9301 41.9671 36.636 43.1965 37.1716 44.2919C37.7071 45.3873 37.9749 46.2028 37.9749 46.7384C37.9749 47.566 37.695 48.2598 37.1351 48.8197C36.5752 49.3796 35.8814 49.6595 35.0538 49.6595Z" fill="black" fill-opacity="0.8"/>
</g>
</g>
</svg>
