<svg width="25" height="25" viewBox="0 0 25 25" fill="none" xmlns="http://www.w3.org/2000/svg">
<g id="palette_FILL0_wght400_GRAD0_opsz48 1">
<path id="Vector" d="M12.1075 22.1613C10.7409 22.1613 9.44921 21.8988 8.23254 21.3738C7.01588 20.8488 5.95338 20.1321 5.04504 19.2238C4.13671 18.3155 3.42004 17.253 2.89504 16.0363C2.37004 14.8196 2.10754 13.528 2.10754 12.1613C2.10754 10.7446 2.37421 9.42798 2.90754 8.21132C3.44088 6.99465 4.17004 5.93632 5.09504 5.03632C6.02004 4.13632 7.10338 3.43215 8.34504 2.92382C9.58671 2.41548 10.9159 2.16132 12.3325 2.16132C13.6492 2.16132 14.8992 2.38215 16.0825 2.82382C17.2659 3.26548 18.3034 3.87798 19.195 4.66132C20.0867 5.44465 20.795 6.37382 21.32 7.44882C21.845 8.52382 22.1075 9.70298 22.1075 10.9863C22.1075 12.7863 21.5825 14.2071 20.5325 15.2488C19.4825 16.2905 18.0909 16.8113 16.3575 16.8113H14.4825C14.1825 16.8113 13.9242 16.928 13.7075 17.1613C13.4909 17.3946 13.3825 17.653 13.3825 17.9363C13.3825 18.3863 13.5034 18.7696 13.745 19.0863C13.9867 19.403 14.1075 19.7696 14.1075 20.1863C14.1075 20.8196 13.9325 21.3071 13.5825 21.6488C13.2325 21.9905 12.7409 22.1613 12.1075 22.1613ZM6.28254 12.8113C6.61588 12.8113 6.90754 12.6863 7.15754 12.4363C7.40754 12.1863 7.53254 11.8946 7.53254 11.5613C7.53254 11.228 7.40754 10.9363 7.15754 10.6863C6.90754 10.4363 6.61588 10.3113 6.28254 10.3113C5.94921 10.3113 5.65754 10.4363 5.40754 10.6863C5.15754 10.9363 5.03254 11.228 5.03254 11.5613C5.03254 11.8946 5.15754 12.1863 5.40754 12.4363C5.65754 12.6863 5.94921 12.8113 6.28254 12.8113ZM9.43254 8.56132C9.76588 8.56132 10.0575 8.43632 10.3075 8.18632C10.5575 7.93632 10.6825 7.64465 10.6825 7.31132C10.6825 6.97798 10.5575 6.68632 10.3075 6.43632C10.0575 6.18632 9.76588 6.06132 9.43254 6.06132C9.09921 6.06132 8.80754 6.18632 8.55754 6.43632C8.30754 6.68632 8.18254 6.97798 8.18254 7.31132C8.18254 7.64465 8.30754 7.93632 8.55754 8.18632C8.80754 8.43632 9.09921 8.56132 9.43254 8.56132ZM14.7825 8.56132C15.1159 8.56132 15.4075 8.43632 15.6575 8.18632C15.9075 7.93632 16.0325 7.64465 16.0325 7.31132C16.0325 6.97798 15.9075 6.68632 15.6575 6.43632C15.4075 6.18632 15.1159 6.06132 14.7825 6.06132C14.4492 6.06132 14.1575 6.18632 13.9075 6.43632C13.6575 6.68632 13.5325 6.97798 13.5325 7.31132C13.5325 7.64465 13.6575 7.93632 13.9075 8.18632C14.1575 8.43632 14.4492 8.56132 14.7825 8.56132ZM18.0575 12.8113C18.3909 12.8113 18.6825 12.6863 18.9325 12.4363C19.1825 12.1863 19.3075 11.8946 19.3075 11.5613C19.3075 11.228 19.1825 10.9363 18.9325 10.6863C18.6825 10.4363 18.3909 10.3113 18.0575 10.3113C17.7242 10.3113 17.4325 10.4363 17.1825 10.6863C16.9325 10.9363 16.8075 11.228 16.8075 11.5613C16.8075 11.8946 16.9325 12.1863 17.1825 12.4363C17.4325 12.6863 17.7242 12.8113 18.0575 12.8113ZM12.1075 20.6613C12.2909 20.6613 12.42 20.6238 12.495 20.5488C12.57 20.4738 12.6075 20.353 12.6075 20.1863C12.6075 19.953 12.4867 19.7363 12.245 19.5363C12.0034 19.3363 11.8825 18.8946 11.8825 18.2113C11.8825 17.4446 12.1325 16.7696 12.6325 16.1863C13.1325 15.603 13.7659 15.3113 14.5325 15.3113H16.3575C17.6242 15.3113 18.6492 14.9405 19.4325 14.1988C20.2159 13.4571 20.6075 12.3863 20.6075 10.9863C20.6075 8.78632 19.7742 7.01548 18.1075 5.67382C16.4409 4.33215 14.5159 3.66132 12.3325 3.66132C9.89921 3.66132 7.83671 4.48215 6.14504 6.12382C4.45338 7.76548 3.60754 9.77798 3.60754 12.1613C3.60754 14.5113 4.43671 16.5155 6.09504 18.1738C7.75338 19.8321 9.75754 20.6613 12.1075 20.6613Z" fill="black" fill-opacity="0.8"/>
</g>
</svg>
